<?xml version="1.0" standalone="no"?>
<!DOCTYPE svg PUBLIC "-//W3C//DTD SVG 20010904//EN"
 "http://www.w3.org/TR/2001/REC-SVG-20010904/DTD/svg10.dtd">
<svg version="1.0" xmlns="http://www.w3.org/2000/svg"
 width="540.000000pt" height="540.000000pt" viewBox="0 0 540.000000 540.000000"
 preserveAspectRatio="xMidYMid meet">
<metadata>
Created by potrace 1.11, written by Peter Selinger 2001-2013
</metadata>
<g transform="translate(0.000000,540.000000) scale(0.100000,-0.100000)"
fill="#000000" stroke="none">
<path d="M170 4810 l0 -590 43 22 c23 12 44 23 47 23 13 4 69 29 110 49 25 12
47 23 50 24 7 1 25 7 107 36 81 28 169 52 228 61 22 3 47 7 55 10 64 19 459
19 559 0 14 -3 46 -7 71 -10 25 -3 54 -8 66 -10 12 -3 39 -7 60 -10 21 -3 50
-8 64 -12 14 -3 32 -7 40 -9 38 -7 126 -27 140 -32 8 -3 24 -7 34 -9 27 -5
221 -61 276 -80 25 -8 52 -16 60 -18 16 -4 171 -61 205 -76 11 -4 58 -24 105
-43 304 -124 716 -343 963 -512 43 -30 82 -54 85 -54 4 0 18 -10 32 -23 14
-12 46 -36 72 -52 27 -17 48 -34 48 -38 0 -5 4 -6 9 -3 5 3 5 25 1 48 -5 24
-11 65 -15 92 -3 27 -8 52 -10 55 -1 3 -6 31 -10 61 -4 30 -9 58 -11 61 -2 4
-6 22 -8 40 -18 130 -176 662 -207 693 -5 6 -9 16 -9 22 0 19 -103 231 -154
317 -49 83 -134 203 -181 256 -51 58 -145 145 -171 159 -13 7 -24 17 -24 22 0
6 -5 10 -10 10 -6 0 -27 11 -48 24 -21 13 -71 36 -112 52 l-75 29 -1242 3
-1243 3 0 -591z"/>
<path d="M2830 5379 c0 -5 7 -9 15 -9 8 0 15 -4 15 -10 0 -5 5 -10 11 -10 40
0 234 -179 320 -295 24 -33 47 -61 52 -63 4 -2 7 -7 7 -12 0 -5 17 -35 38 -67
46 -69 116 -202 156 -293 15 -36 32 -74 37 -85 75 -163 203 -619 234 -829 2
-17 7 -44 10 -61 17 -97 29 -178 41 -290 2 -22 6 -58 9 -80 17 -155 24 -313
26 -540 2 -201 -7 -404 -26 -602 -4 -42 -3 -63 4 -63 6 0 11 4 11 8 0 5 10 14
23 19 12 6 40 26 61 45 21 18 73 62 115 98 135 115 284 260 391 381 41 46 81
91 90 100 39 42 146 187 204 276 25 40 51 75 56 78 6 3 10 15 10 26 0 10 5 19
10 19 6 0 10 6 10 14 0 8 3 16 8 18 13 5 98 199 125 285 84 266 68 459 -57
667 -142 238 -336 464 -582 676 -51 44 -207 156 -280 201 -38 24 -79 50 -90
57 -10 7 -37 22 -59 33 -22 11 -58 30 -80 42 -22 13 -42 23 -45 24 -3 1 -36
15 -73 32 -38 17 -71 31 -74 31 -3 0 -19 6 -36 14 -57 26 -310 106 -352 112
-11 2 -31 6 -45 9 -14 4 -35 8 -47 10 -11 2 -29 6 -40 9 -10 3 -40 8 -68 12
-27 3 -69 9 -92 14 -24 4 -43 4 -43 -1z"/>
<path d="M997 4414 c-1 -1 -40 -4 -87 -7 -47 -4 -110 -11 -140 -17 -30 -6 -66
-14 -79 -16 -66 -13 -283 -97 -430 -165 l-91 -42 0 -976 c0 -924 1 -974 17
-951 10 14 21 30 25 35 4 6 47 62 95 125 95 125 94 123 209 255 127 145 136
155 209 233 158 168 366 353 570 507 44 33 82 62 85 65 35 35 415 281 560 362
25 14 63 35 85 48 55 31 318 162 383 190 28 13 52 27 52 31 0 4 -12 12 -27 17
-16 6 -71 27 -123 47 -52 20 -99 38 -105 39 -5 2 -17 6 -25 9 -73 29 -335 104
-395 114 -16 3 -38 9 -48 15 -10 5 -21 7 -24 4 -3 -2 -16 -1 -30 5 -23 9 -37
12 -113 24 -19 3 -57 10 -85 15 -99 20 -473 46 -488 34z"/>
<path d="M4994 3738 c0 -131 -38 -304 -96 -428 -11 -25 -21 -50 -22 -55 -1 -6
-18 -41 -39 -78 -20 -37 -37 -70 -37 -73 0 -3 -8 -17 -19 -32 -10 -15 -40 -61
-67 -102 -76 -117 -151 -215 -264 -345 -42 -49 -332 -339 -380 -380 -19 -17
-64 -55 -100 -84 -36 -30 -67 -57 -70 -60 -3 -4 -21 -18 -40 -31 -19 -13 -37
-27 -40 -30 -36 -40 -390 -283 -565 -387 -166 -99 -389 -221 -465 -254 -123
-53 -179 -84 -167 -95 10 -9 191 -77 357 -134 97 -34 301 -89 388 -105 13 -2
31 -6 40 -9 19 -6 60 -14 112 -22 19 -2 58 -9 85 -14 145 -27 523 -36 650 -15
132 22 140 24 230 55 189 67 316 167 397 312 68 124 189 392 203 453 1 6 4 17
8 25 10 29 36 115 52 180 18 69 22 87 30 135 3 17 8 37 10 45 2 8 7 35 10 60
3 25 8 58 11 75 25 150 24 627 -1 725 -2 8 -6 33 -9 55 -11 77 -42 225 -53
255 -4 8 -8 26 -10 39 -6 33 -72 228 -95 281 -11 24 -21 50 -22 57 -1 7 -7 18
-12 23 -7 7 -10 -7 -10 -42z"/>
<path d="M1240 3294 c-227 -187 -406 -354 -532 -495 -13 -14 -39 -43 -58 -65
-19 -21 -55 -64 -79 -94 -25 -30 -49 -59 -55 -65 -6 -5 -29 -32 -51 -60 -22
-27 -47 -59 -57 -70 -46 -55 -156 -197 -194 -251 l-44 -62 0 -1065 0 -1065
1058 -1 1057 -1 -35 21 c-167 102 -251 178 -406 372 -8 9 -14 19 -14 22 0 3
-18 31 -39 63 -123 180 -281 564 -356 862 -2 8 -4 16 -5 18 -3 2 -3 2 -15 57
-4 22 -9 45 -11 50 -5 22 -36 161 -39 180 -2 11 -6 38 -9 60 -3 22 -10 63 -16
90 -10 54 -37 265 -45 355 -3 30 -8 93 -12 140 -9 105 -8 753 0 835 11 98 19
215 15 214 -2 0 -28 -20 -58 -45z"/>
<path d="M1370 1933 c0 -15 13 -101 24 -168 2 -11 7 -36 10 -55 89 -520 278
-1018 496 -1305 28 -36 50 -68 50 -71 0 -8 154 -158 179 -174 13 -8 30 -22 39
-30 19 -18 39 -30 120 -69 94 -46 175 -59 337 -55 125 3 169 7 255 18 133 19
143 21 235 41 61 13 248 66 300 85 112 41 240 94 270 112 17 10 38 18 47 18 9
0 18 4 20 9 2 5 35 25 74 44 39 20 115 65 169 101 54 36 102 66 106 66 4 0 9
3 11 8 2 4 30 27 63 52 160 120 345 302 458 450 23 30 50 63 60 73 23 23 14
36 -10 16 -46 -38 -199 -96 -328 -126 -170 -38 -569 -37 -785 2 -14 3 -43 8
-65 11 -22 3 -78 15 -125 26 -47 11 -92 21 -100 21 -8 0 -21 4 -27 10 -7 5
-13 7 -13 4 0 -3 -15 -1 -32 4 -18 6 -40 12 -48 14 -110 28 -363 112 -427 141
-17 8 -34 14 -38 14 -8 0 -68 25 -108 46 -16 8 -33 14 -37 14 -22 0 -513 239
-518 252 -2 4 -8 8 -14 8 -26 0 -454 267 -595 372 -43 31 -53 35 -53 21z"/>
</g>
</svg>
