<?xml version="1.0" standalone="no"?>
<!DOCTYPE svg PUBLIC "-//W3C//DTD SVG 20010904//EN"
 "http://www.w3.org/TR/2001/REC-SVG-20010904/DTD/svg10.dtd">
<svg version="1.0" xmlns="http://www.w3.org/2000/svg"
 width="700.000000pt" height="700.000000pt" viewBox="0 0 700.000000 700.000000"
 preserveAspectRatio="xMidYMid meet">
<metadata>
Created by potrace 1.11, written by Peter Selinger 2001-2013
</metadata>
<g transform="translate(0.000000,700.000000) scale(0.100000,-0.100000)"
fill="#000000" stroke="none">
<path d="M680 5980 c0 -357 2 -650 4 -650 1 0 45 20 97 44 232 108 436 171
646 201 150 21 490 17 678 -9 800 -110 1723 -489 2517 -1032 127 -87 120 -96
83 118 -171 993 -574 1734 -1047 1926 -130 52 -108 51 -1595 52 l-1383 0 0
-650z"/>
<path d="M3952 6532 c402 -321 728 -1032 878 -1912 72 -424 94 -742 86 -1245
-3 -214 -10 -421 -15 -460 -4 -38 -6 -72 -5 -74 9 -11 271 215 449 388 460
448 736 873 837 1291 8 33 13 112 12 200 0 129 -3 154 -27 225 -58 176 -285
494 -525 739 -414 421 -906 706 -1459 845 -108 27 -272 61 -295 61 -5 0 24
-26 64 -58z"/>
<path d="M1527 5470 c-109 -10 -244 -33 -327 -57 -78 -22 -286 -105 -412 -165
l-108 -51 0 -1080 0 -1080 94 124 c181 239 506 601 701 782 465 431 953 768
1563 1078 l213 109 -37 15 c-335 140 -871 280 -1199 314 -151 15 -378 20 -488
11z"/>
<path d="M6298 4540 c-88 -515 -528 -1134 -1209 -1700 -393 -328 -832 -611
-1340 -866 l-173 -86 34 -15 c19 -8 85 -33 145 -55 339 -124 672 -209 995
-255 158 -22 567 -25 680 -5 274 49 480 145 604 283 144 160 351 652 424 1009
55 266 67 381 66 660 0 313 -20 482 -91 765 -26 104 -97 331 -111 352 -4 7
-15 -30 -24 -87z"/>
<path d="M1790 4064 c-342 -288 -662 -635 -1012 -1098 l-98 -130 0 -1223 0
-1223 1166 0 1167 0 -39 26 c-127 86 -271 225 -367 356 -346 471 -588 1229
-672 2103 -33 346 -37 878 -9 1213 4 47 3 82 -2 82 -5 -1 -65 -48 -134 -106z"/>
<path d="M2111 2446 c77 -498 235 -1000 426 -1349 96 -176 189 -304 313 -428
242 -244 404 -299 790 -270 731 56 1392 349 1923 851 87 83 268 280 275 301 2
5 -20 0 -50 -12 -304 -123 -763 -145 -1248 -58 -705 125 -1531 473 -2250 948
-80 53 -157 104 -171 114 l-26 17 18 -114z"/>
</g>
</svg>
