<svg xmlns="http://www.w3.org/2000/svg" width="49" height="48"><path fill="#fbcb99" d="M32.697 9.266a8.518 8.518 0 01-.136 1.526 8.495 8.495 0 01-.653 2.072 8.637 8.637 0 01-7.85 5.018 8.637 8.637 0 01-7.937-5.213 8.553 8.553 0 01-.701-3.403c0-4.758 3.867-8.616 8.639-8.616 4.77 0 8.637 3.858 8.637 8.616z"/><path fill="#eaa96e" d="M32.564 10.797a8.5 8.5 0 01-.653 2.072c-7.22.038-10.378-3.162-10.378-3.162-1.64 1.594-3.758 2.482-5.408 2.967a8.432 8.432 0 01-.565-1.881 8.635 8.635 0 018.503-7.083 8.634 8.634 0 018.5 7.087z"/><path fill="#694b4b" d="M32.697 9.266c0 .177-.006.353-.017.528-7.767.28-11.15-3.147-11.15-3.147-.487.472-1.014.883-1.56 1.239-1.56 1.02-3.263 1.597-4.532 1.915a7.374 7.374 0 01-.018-.535c0-4.758 3.867-8.616 8.639-8.616a8.635 8.635 0 017.312 4.03 8.547 8.547 0 011.326 4.586z"/><path fill="#563939" d="M32.696 9.271c0 .177-.005.353-.017.528-7.766.28-11.15-3.147-11.15-3.147-.486.472-1.014.883-1.559 1.238a8.64 8.64 0 017.408-4.18 8.6 8.6 0 013.993.975 8.549 8.549 0 011.325 4.586z"/><path fill="#3c6f99" d="M37.333 29.688H10.88c.726-6.646 6.37-11.818 13.226-11.818 6.857 0 12.501 5.172 13.227 11.818z"/><path fill="#6598cb" d="M36.558 29.685H11.67a13.308 13.308 0 0112.444-8.565c5.687 0 10.54 3.559 12.444 8.565z"/><path fill="#eaa96e" d="M28.596 18.824l-1.46 1.665-3.122 3.56-3.371-3.378-1.843-1.847c5.513-2.642 9.796 0 9.796 0z"/><path fill="#fbcb99" d="M27.134 20.48l-3.123 3.56-3.371-3.378c2.69-.904 4.99-.612 6.494-.181z"/><path fill="#c62e1e" d="M47.457 31.5l-1.572 1.57-1.813 1.806-1.982-1.977-1.484 1.48-8.03-8.08-1.746-1.758 4.826-4.811z"/><path fill="#ef4c35" d="M45.888 33.067l-1.812 1.806-1.983-1.977-1.484 1.48-8.029-8.08a4.62 4.62 0 016.52.001z"/><path fill="#c62e1e" d="M.73 31.5l1.572 1.57 1.812 1.806 1.983-1.977 1.484 1.48 8.029-8.08 1.747-1.758-4.827-4.811z"/><path fill="#ef4c35" d="M2.3 33.067l1.812 1.806 1.983-1.977 1.484 1.48 8.029-8.08a4.62 4.62 0 00-6.52.001z"/><path fill="#fbcb99" d="M34.63 36.513l1.712 1.707-.116.116-1.437 1.432-5.958 5.943-.915-.913-2.028 2.023-2.055-2.047-2.407 2.401-1.741-1.736-.411.41-7.232-7.212 1.67-1.665-4.462-4.449 7.457-8.163h14.341l7.883 7.863z"/><path fill="#eaa96e" d="M19.647 25.062l-5.246 5.233a2.533 2.533 0 000 3.59l1.364 1.36-2.013 2.007-4.712-4.7 7.893-7.872zM32.871 34.803l.527-.525a3.131 3.131 0 000-4.437L28.6 25.056l2.445-.566 7.944 7.923-4.347 4.336zM15.97 42.15l1.647-1.644c.61-.608.61-1.594 0-2.202l.716-.714 2.032 2.026-3.425 3.416zM18.31 44.49l1.647-1.644c.61-.608.61-1.594 0-2.202l.716-.714 2.032 2.026-3.425 3.416zM13.75 39.94l1.647-1.644c.61-.608.61-1.594 0-2.202l.716-.714 2.032 2.026-3.425 3.416zM29.98 43.126l-.763.766-2.865-2.858a1.06 1.06 0 01.012-1.514s1.099.347 1.148.36c.05.012 2.468 3.246 2.468 3.246zM28.888 37.011a1.216 1.216 0 000 1.723l2.937 2.93 1.314-1.31-3.424-3.414zM20.73 45.85l1.156-1.153a.885.885 0 000-1.254l1.818-1.813 3.277 3.268-1.56 1.556-1.616-1.611-2.031 2.026z"/><path fill="#eaa96e" d="M21.846 27.03a1.51 1.51 0 010 2.14l-2.58 2.573-1.596-1.591 2.877-2.87M36.223 38.33l-1.436 1.432-5.438-5.424a2.472 2.472 0 00-3.49 0l-1.013 1.01a2.472 2.472 0 01-3.49 0l-.436-.435 5.938-5.923z"/><path d="M35.577 19.006l12.452 12.42-4.048 4.037-1.764-1.759-1.507 1.504-1.857-1.852-3.374 3.365 1.447 1.443-3.007 3-2.491 2.484-2.957 2.948-.775-.773-2.014 2.008-2.009-2.003-2.135 2.129-1.795-1.793-.531.53-2.283-2.279-.001.001-2.368-2.364-.001.001-3.339-3.332 1.672-1.667-3.727-3.716-1.834 1.83-1.519-1.515-1.764 1.759L0 31.374l12.453-12.42 1.91 1.906a14.115 14.115 0 015.783-3.252c-3.161-1.461-5.36-4.656-5.36-8.354 0-5.075 4.14-9.204 9.229-9.204 5.088 0 9.228 4.129 9.228 9.204 0 3.702-2.203 6.9-5.37 8.36a14.256 14.256 0 015.82 3.27zm-10.196 4.85h5.333l1.999-1.994a12.834 12.834 0 00-3.556-2.324zm2.388-4.832a12.789 12.789 0 00-7.514-.007l3.76 4.299zm-11.593-9.94c4.38-1.553 5.764-4.305 5.778-4.334l1.247.603c-.027.055-.278.557-.858 1.252 1.217.854 4.313 2.591 9.512 2.728l.002-.08c0-4.312-3.518-7.821-7.842-7.821-4.267 0-7.747 3.417-7.839 7.651zm7.839 7.992a7.849 7.849 0 007.703-6.364c-5.738-.17-9.073-2.151-10.344-3.094-1.083.995-2.72 2.111-5.1 2.892a7.848 7.848 0 007.74 6.566zm-5.148 2.456a12.777 12.777 0 00-3.524 2.305l2.024 2.019h5.281zm-2.804 4.977l-3.61-3.6L1.959 31.374l2.09 2.084 1.273-1.271 6.36-6.343.98.977-5.87 5.854.539.538 1.367-1.363.002.003zm1.445 12.649l-1.38-1.377-2.948 2.94 1.38 1.378zm2.293 2.287l-1.304-1.301-2.948 2.94 1.303 1.302zm2.283 2.276l-1.227-1.223-2.948 2.94 1.226 1.224zm1.343 2.399l-.817-.815-1.887 1.882.816.815zm3.283.732L24.55 42.7l.007-.007-.666-.664-.301.3 1.796 1.791-.733.732 1.03 1.026zM37.874 32.38l-7.16-7.141H17.292l-7.144 7.125 3.724 3.714 2.256-2.25 2.369 2.363.97.968 2.37 2.363 2.269 2.263.75-.748 3.616 3.606 1.511-1.508-3.615-3.606.98-.977 3.615 3.606 1.538-1.533-3.616-3.606.98-.977 3.615 3.606 1.487-1.483-2.159-2.153-6.054-6.038-5.395 5.38-4.906-4.892 4.416-4.405.98.977-3.437 3.428 2.947 2.939 5.395-5.382 7.746 7.726zm8.196-.953L35.577 20.96l-3.596 3.587 7.852 7.832.877.874.528-.526-5.87-5.854.98-.977 6.36 6.342 1.274 1.271z"/><path d="M35.488 25.035l-.813-.81-.98.977.813.81zM13.52 25.962l.813-.81-.98-.978-.812.81zM48.126 7.47H46.74v1.504h1.386zM43.046 10.29H41.66v1.504h1.386zM39.076 4.3H37.69v1.504h1.386zM43.046 1.4H41.66v1.504h1.386zM36.056 12.48H34.67v1.504h1.386zM42.906 17.13H41.52v1.504h1.386zM1.476 7.47H.09v1.504h1.386zM6.566 10.29H5.18v1.504h1.386zM10.536 4.3H9.15v1.504h1.386zM6.566 1.4H5.18v1.504h1.386zM13.546 12.48H12.16v1.504h1.386zM6.696 17.13H5.31v1.504h1.386z"/><path d="M35.577 19.006l12.452 12.42-4.048 4.037-1.764-1.759-1.507 1.504-1.857-1.852-3.374 3.365 1.447 1.443-3.007 3-2.491 2.484-2.957 2.948-.775-.773-2.014 2.008-2.009-2.003-2.135 2.129-1.795-1.793-.531.53-2.283-2.279-.001.001-2.368-2.364-.001.001-3.339-3.332 1.672-1.667-3.727-3.716-1.834 1.83-1.519-1.515-1.764 1.759L0 31.374l12.453-12.42 1.91 1.906a14.115 14.115 0 015.783-3.252c-3.161-1.461-5.36-4.656-5.36-8.354 0-5.075 4.14-9.204 9.229-9.204 5.088 0 9.228 4.129 9.228 9.204 0 3.702-2.203 6.9-5.37 8.36a14.256 14.256 0 015.82 3.27zm-2.864 2.856a12.834 12.834 0 00-3.556-2.323l-3.776 4.317h5.333zM16.176 9.083c4.38-1.552 5.764-4.304 5.778-4.333l1.247.603c-.027.055-.278.557-.858 1.252 1.217.854 4.313 2.591 9.512 2.728l.002-.08c0-4.312-3.518-7.821-7.842-7.821-4.267 0-7.747 3.417-7.839 7.651zm7.839 7.993a7.849 7.849 0 007.703-6.364c-5.738-.17-9.073-2.151-10.344-3.094-1.083.995-2.72 2.111-5.1 2.892a7.848 7.848 0 007.74 6.566zm3.754 1.948a12.786 12.786 0 00-3.754-.566c-1.292 0-2.556.191-3.76.56l3.76 4.298zm-8.902.508a12.777 12.777 0 00-3.524 2.305l2.024 2.019h5.281zM7.33 33.213l1.367-1.363.002.003 7.363-7.344-3.61-3.6L1.959 31.375l2.09 2.083 1.273-1.271 6.36-6.343.98.977-5.87 5.855zm5.849 5.508l1.38 1.378 2.948-2.941-1.38-1.377zm2.369 2.364l1.303 1.3 2.949-2.94-1.304-1.301zm2.36 2.353l1.226 1.224 2.949-2.94-1.227-1.224zm3.63 2.564l1.888-1.883-.817-.814-1.887 1.883zm3.012-3.303l.006-.007-.666-.664-.301.3 1.796 1.791-.733.732 1.03 1.026 1.027-1.025zm13.323-10.32l-7.16-7.141H17.292l-7.144 7.125 3.724 3.714 2.256-2.25 2.369 2.363.97.968 2.37 2.363 2.269 2.263.75-.748 3.616 3.606 1.511-1.508-3.615-3.606.98-.977 3.615 3.606 1.538-1.533-3.616-3.606.98-.977 3.615 3.606 1.487-1.483-2.159-2.153-6.054-6.038-5.395 5.38-4.906-4.892 4.416-4.405.98.977-3.437 3.428 2.947 2.939 5.395-5.382 7.746 7.726zm8.196-.953L35.577 20.96l-3.596 3.587 7.852 7.832.877.874.528-.526-5.87-5.854.98-.977 6.36 6.342 1.274 1.271z"/><path d="M35.488 25.035l-.813-.81-.98.977.813.81zM12.54 24.982l.98.977.812-.81-.98-.978zM48.126 7.47H46.74v1.504h1.386zM43.046 10.29H41.66v1.504h1.386zM39.076 4.3H37.69v1.504h1.386z"/><g><path d="M43.046 1.4H41.66v1.504h1.386z"/></g><g><path d="M36.056 12.48H34.67v1.504h1.386z"/></g><g><path d="M42.906 17.13H41.52v1.504h1.386z"/></g><g><path d="M1.476 7.47H.09v1.504h1.386z"/></g><g><path d="M6.566 10.29H5.18v1.504h1.386z"/></g><g><path d="M10.536 4.3H9.15v1.504h1.386z"/></g><g><path d="M6.566 1.4H5.18v1.504h1.386z"/></g><g><path d="M13.546 12.48H12.16v1.504h1.386z"/></g><g><path d="M6.696 17.13H5.31v1.504h1.386z"/></g></svg>