<svg xmlns="http://www.w3.org/2000/svg" width="49" height="48" viewBox="0 0 49 48"><g><g><g/><g><path fill="#563939" d="M28.62 39.72H18.5v7.544h10.12z"/></g><g><path fill="#694b4b" d="M28.68 43.77v3.5h-5.06c0-1.933 1.571-3.5 3.51-3.5z"/></g><g><g><path fill="#ef4c35" d="M23.62 41.835c.763 0 1.516-.043 2.258-.125a15.98 15.98 0 0 1-2.258-.45z"/></g><g><path fill="#ef4c35" d="M43.79 23.842c.083-.74.127-1.49.127-2.252h-.577c.202.731.354 1.483.45 2.252z"/></g></g><g><path fill="#c62e1e" d="M23.612 10.436V1.34C12.4 1.34 3.31 10.406 3.31 21.589v.04h9.109c1.485-5.424 5.76-9.698 11.193-11.193z"/></g><g><path fill="#ef4c35" d="M43.794 23.837c-1.04 9.383-8.51 16.833-17.918 17.87-.772-.095-1.525.123-2.259-.08V23.423c0-.475-.175-1.103.04-1.551.167-.351.6-.286.933-.286h19.319c.005 0-.104-.004-.103 0 .203.731-.108 1.483-.012 2.252z"/></g><g><path fill="#579e2e" d="M27.892 9.861c7.374 0 13.584 4.966 15.454 11.728h.576c0-11.183-9.09-20.249-20.302-20.249v9.096a16.085 16.085 0 0 1 4.272-.575z"/></g><g><path fill="#75bf4d" d="M27.898 9.58a16.37 16.37 0 0 0-4.348.585v11.353h20.08C41.725 14.635 35.403 9.58 27.897 9.58z"/></g><g><path fill="#6598cb" d="M3.31 21.63c0 11.183 9.09 20.249 20.302 20.249v-.041c-11.199 0-20.28-9.044-20.301-20.208z"/></g><g><path fill="#579e2e" d="M11.853 25.85c0-1.461.198-2.876.565-4.22H3.31c.022 11.164 9.103 20.208 20.302 20.208v-.575c-6.78-1.865-11.759-8.059-11.759-15.413z"/></g><g><path fill="#75bf4d" d="M23.55 41.544V21.56H12.155a16.25 16.25 0 0 0-.576 4.295c0 7.486 5.068 13.791 11.97 15.69z"/></g><g><path fill="#d1ab0d" d="M43.867 5.68l-2.221 2.215-1.333 1.33H35.78V4.983l3.652-3.643.02 4.34z"/></g><g><path fill="#f8ce19" d="M41.646 7.89l-1.333 1.33H35.78V4.978l1.431-1.428.005.946a3.415 3.415 0 0 0 3.42 3.394h1.01z"/></g><g><path fill="#aeb9cc" d="M34.992 21.59c0 6.264-5.091 11.34-11.371 11.34a11.36 11.36 0 0 1-4.286-.833c-4.156-1.687-7.085-5.755-7.085-10.506 0-6.263 5.091-11.341 11.37-11.341 4.765 0 8.844 2.922 10.537 7.067.538 1.32.835 2.761.835 4.274z"/></g><g><path fill="#c8d0e2" d="M34.992 21.587c0 6.263-5.091 11.34-11.371 11.34a11.36 11.36 0 0 1-4.286-.834 11.274 11.274 0 0 1-.835-4.273c0-6.263 5.091-11.34 11.37-11.34 1.517 0 2.963.296 4.286.833.538 1.32.836 2.762.836 4.274z"/></g><g><path fill="#324a5e" d="M23.543 23.188c.891 0 1.613-.72 1.613-1.61 0-.888-.722-1.608-1.613-1.608-.89 0-1.613.72-1.613 1.609 0 .888.722 1.609 1.613 1.609z"/></g><g><path d="M19.09 5.376l-.367-1.336a18.185 18.185 0 0 0-5.773 2.734l.807 1.128a16.799 16.799 0 0 1 5.333-2.526z"/></g><g><path d="M10.725 10.679c.358-.417.74-.821 1.136-1.2l-.963-.999c-.428.41-.84.847-1.228 1.298z"/></g><g><path d="M35.8 33.377l1.003.957a18.337 18.337 0 0 0 3.72-5.684l-1.283-.53a16.965 16.965 0 0 1-3.44 5.257z"/></g><g><path d="M40.272 24.55c-.08.464-.182.93-.302 1.385l1.343.351c.13-.493.24-.997.327-1.5z"/></g><g><path d="M40.786 9.895a20.594 20.594 0 0 1 3.663 11.78c0 5.56-2.171 10.787-6.113 14.719a20.766 20.766 0 0 1-8.987 5.294V48H17.813v-6.312a20.767 20.767 0 0 1-8.99-5.294C4.88 32.463 2.71 27.236 2.71 21.676c0-5.56 2.17-10.787 6.113-14.718A20.76 20.76 0 0 1 23.579.86c4.261 0 8.33 1.262 11.812 3.654L39.917 0l.983.98-.864.86v2.443l.808-.805.982.98-.808.805h2.449l.972-.97.982.98zM35.57 20.818h7.471a19.211 19.211 0 0 0-3.77-10.658h-3.163l-3.555 3.546a11.927 11.927 0 0 1 3.017 7.112zm-4.448 1.384v-1.385h3.056a10.55 10.55 0 0 0-2.609-6.13l-5.831 5.815c.191.35.3.749.3 1.174a2.459 2.459 0 0 1-4.918 0 2.459 2.459 0 0 1 3.636-2.153l5.831-5.816a10.604 10.604 0 0 0-6.38-2.618v2.832H22.82v-2.823c-5.225.37-9.419 4.522-9.838 9.72h2.923v1.385h-2.945c.264 5.352 4.524 9.673 9.86 10.05V29.1h1.389v3.162c5.397-.315 9.726-4.663 9.992-10.06zm4.004-16.176a19.339 19.339 0 0 0-10.918-3.769v7.445a11.99 11.99 0 0 1 7.363 3.024l3.555-3.546zm-10.48 15.566l-.576.573-.982-.979.575-.573c-.028-.002-.055-.004-.084-.004-.59 0-1.07.478-1.07 1.067a1.07 1.07 0 1 0 2.136-.084zM36.513 8.775h3.431l2.133-2.128h-2.449l-.99.987-.981-.98.99-.986V3.226l-2.134 2.127zM22.82 2.263c-10.105.389-18.26 8.49-18.7 18.554h7.47c.424-5.962 5.239-10.732 11.23-11.107zM4.106 22.203C4.38 32.42 12.604 40.696 22.82 41.089v-7.447c-6.102-.382-10.983-5.324-11.25-11.44zm23.854 19.83a21.117 21.117 0 0 1-8.759 0v4.582h8.76v-1.438h-4.38v-1.385h4.38zm-3.752-.939c10.276-.326 18.57-8.629 18.845-18.892h-7.464c-.268 6.16-5.218 11.13-11.381 11.448z"/></g></g></g></svg>