<svg xmlns="http://www.w3.org/2000/svg" width="49" height="48"><path fill="#f7f051" d="M47.322 4.002v7.204c0 .442-.36.8-.802.8H32.876a.802.802 0 00-.803.8v.847a.804.804 0 01-1.27.651L21.977 7.89a.8.8 0 01.033-1.325L30.837.927a.804.804 0 011.236.673v.801c0 .442.36.8.803.8H46.52c.443 0 .802.359.802.801z"/><path fill="#ad1457" d="M46.985 23.1l-8.828 6.412a.804.804 0 01-1.268-.648v-.849a.804.804 0 00-.803-.8H22.443a.804.804 0 01-.803-.8V19.21c.001-.442.36-.8.803-.8h13.643a.804.804 0 00.803-.801v-.8a.804.804 0 011.236-.672l8.828 5.634a.8.8 0 01.032 1.329z"/><path fill="#e91e63" d="M43.775 23.097L36.889 28.1v-.088a.804.804 0 00-.803-.8H22.443a.804.804 0 01-.803-.801v-7.204c.001-.442.36-.8.803-.8h13.643a.804.804 0 00.803-.8v-.217l6.854 4.378a.8.8 0 01.032 1.33z"/><path fill="#2e7d32" d="M39.382 41.545L38.25 42.68l-1.083 1.073-.281.288-.81.8c-5.073 5.06-16.542 1.81-25.635-7.26-9.044-9.02-12.31-20.379-7.367-25.478l.899-.888 1.131-1.137a.212.212 0 01.049-.04l.184-.184L6.47 8.718a1.611 1.611 0 012.271 0l4.535 4.53a1.592 1.592 0 010 2.258l-1.132 1.137-.225.224-1.597 1.593a1.557 1.557 0 00-.457 1.32c.289 2.178 1.934 6.708 6.821 11.575 4.88 4.875 9.422 6.516 11.605 6.804.467.065.938-.089 1.277-.416l.048-.04 1.822-1.817 1.14-1.13a1.6 1.6 0 012.263 0l4.542 4.523c.626.626.626 1.64 0 2.266z"/><path fill="#4caf50" d="M38.017 42.892l-.85.857-.281.288-.81.8c-5.073 5.059-16.542 1.81-25.635-7.26-9.044-9.021-12.31-20.38-7.367-25.478l.899-.889 1.131-1.136a.212.212 0 01.049-.04 1.59 1.59 0 012.223.04l4.542 4.522c.618.63.618 1.636 0 2.265l-1.14 1.129-.457.464-1.356 1.361a1.49 1.49 0 00-.458 1.313c.281 2.177 1.926 6.708 6.822 11.574 4.872 4.883 9.422 6.524 11.605 6.804.487.07.978-.1 1.316-.456l1.317-1.313.048-.04.457-.464h.008l1.132-1.129a1.616 1.616 0 012.263 0l4.543 4.53a1.578 1.578 0 010 2.258z"/><path fill="#8bc34a" d="M39.385 41.546l-1.131 1.137-.57-.569-6.244-6.227 1.14-1.129a1.6 1.6 0 012.263 0l4.542 4.523a1.6 1.6 0 010 2.265zM13.277 15.506l-1.131 1.137L5.34 9.855l1.132-1.137a1.611 1.611 0 012.27 0l4.536 4.53a1.593 1.593 0 010 2.258z"/><g><path fill="#0377bc" d="M47.32 4v7.204a.804.804 0 01-.802.8H44.11a.804.804 0 00.803-.8V4a.804.804 0 00-.803-.8h2.408a.804.804 0 01.802.8z"/></g><g><path d="M10.885 19.02a.78.78 0 00-.233.656c.117.874.984 5.518 6.594 11.113s10.266 6.46 11.142 6.576a.783.783 0 00.658-.233l1.82-1.815v-.001l1.135-1.131a2.418 2.418 0 013.405-.001l4.54 4.53a2.4 2.4 0 010 3.396l-3.309 3.299a9.701 9.701 0 01-7.062 2.58c-5.872 0-13.383-3.536-19.707-9.842-9.387-9.363-12.653-21.34-7.28-26.699l3.308-3.3a2.475 2.475 0 013.406 0l4.54 4.528a2.402 2.402 0 010 3.397zM8.166 9.28a.826.826 0 00-1.134 0l-.568.567 5.675 5.66.567-.566a.8.8 0 000-1.133zm26.105 26.037a.806.806 0 00-1.135 0l-.567.566 5.674 5.66.568-.566a.801.801 0 000-1.131zM9.75 17.89l1.255-1.251-5.675-5.66-1.607 1.601c-4.746 4.734-1.48 15.696 7.281 24.435 8.763 8.739 19.753 11.994 24.5 7.262l1.606-1.602-5.675-5.66-1.254 1.25a2.378 2.378 0 01-2.002.687c-2.8-.372-7.438-2.414-12.067-7.031-4.63-4.617-6.677-9.244-7.05-12.034a2.367 2.367 0 01.688-1.997zM46.512 2.402a1.605 1.605 0 011.605 1.6v7.205c-.001.883-.72 1.6-1.605 1.6H32.868v.846a1.6 1.6 0 01-.87 1.424 1.608 1.608 0 01-1.668-.121l-8.834-6.418a1.6 1.6 0 01.071-2.646l8.83-5.639a1.609 1.609 0 011.636-.057c.515.28.835.82.835 1.405v.8zm0 8.805V4l-13.644.001a1.605 1.605 0 01-1.605-1.6V1.6l-8.83 5.638 8.836 6.418-.006-.85c.001-.883.72-1.6 1.605-1.6z"/><path d="M47.445 23.75l-8.822 6.41a1.604 1.604 0 01-2.544-1.298v-.846H22.435a1.605 1.605 0 01-1.605-1.6V19.21c.001-.883.72-1.6 1.605-1.6H36.08v-.8a1.6 1.6 0 01.836-1.405 1.609 1.609 0 011.637.058L47.38 21.1a1.599 1.599 0 01.066 2.65zm-.94-1.298l-8.82-5.64-.001.799c-.001.883-.72 1.6-1.605 1.6H22.435v7.204H36.08a1.605 1.605 0 011.605 1.601v.846z"/></g></svg>