<svg xmlns="http://www.w3.org/2000/svg" width="49" height="49"><path fill="#f7f051" d="M47.187 47.205H.94V.99zM9.024 39.127h18.894L9.024 20.245z"/><path fill="#495d85" d="M46.64 30.01a1.88 1.88 0 010 2.657l-2.66 2.656a1.881 1.881 0 01-2.658 0l-2.702-2.7.03-.028 5.287-5.285z"/><path fill="#e9eef0" d="M43.935 27.307l-5.288 5.284-.029.03-2.658-2.657.029-.03 5.288-5.284z"/><path fill="#2bbdc4" d="M41.28 24.65l-5.288 5.283-.029.03L15.56 9.573l.03-.03 5.287-5.283z"/><path fill="#fed2a4" d="M20.878 4.268L15.59 9.552l-.03.03-.622-.622L12.28.99l7.976 2.656z"/><path d="M33.434 22.064a.94.94 0 10-1.33-1.329.94.94 0 001.33 1.329zM.94 48.144a.94.94 0 01-.94-.94V.99A.94.94 0 011.605.325L47.85 46.54a.94.94 0 01-.664 1.604zm.94-1.88h43.037l-7.56-7.555-1.994 1.994a.94.94 0 01-1.33-1.329l1.994-1.993-3.988-3.985-1.993 1.993a.94.94 0 11-1.33-1.328l1.994-1.994-3.988-3.985-1.994 1.993a.94.94 0 01-1.33-1.328l1.995-1.993-3.988-3.986-1.994 1.993a.94.94 0 01-1.33-1.328l1.994-1.993-3.987-3.985-1.995 1.992a.94.94 0 01-1.33-1.328l1.995-1.992-3.988-3.986-1.994 1.992a.94.94 0 01-1.33-1.328l1.995-1.992L1.88 3.257z"/><path d="M28.58 38.456a.94.94 0 01-.666 1.604H9.02a.94.94 0 01-.94-.94V20.24a.94.94 0 011.605-.665zm-2.935-.274L9.96 22.507v15.675zM29.444 19.409a.94.94 0 001.33-1.328l-3.99-3.986a.94.94 0 00-1.329 1.328z"/><path d="M14.273 9.624a.94.94 0 01-.226-.367l-2.659-7.97a.939.939 0 011.19-1.189l7.975 2.657a.938.938 0 01.367.226l26.385 26.367a2.822 2.822 0 010 3.986l-2.658 2.657a2.82 2.82 0 01-3.988 0zM43.94 28.64l-3.988 3.986 2.037 2.035a.94.94 0 001.33 0l2.658-2.656a.94.94 0 000-1.33zm-2.658-2.656l-3.988 3.985 1.329 1.329 3.988-3.986zM16.89 9.581l19.073 19.06 3.988-3.985-19.073-19.06zm-3.124-7.107l1.894 5.679 3.788-3.786z"/></svg>