<svg xmlns="http://www.w3.org/2000/svg" width="172" height="26" viewBox="0 0 172 26">
    <path fill="#353B48" fill-rule="nonzero" d="M5.018 26v-7.036L4.557 8.125 9.523 26h3.414l4.966-17.875-.46 10.84V26h5.034V0h-6.553l-4.677 18.804L6.554 0H0v26h5.018zm27.737 0c2.31 0 4.106-.826 5.389-2.478 1.283-1.652 1.924-3.945 1.924-6.88v-1.23c0-2.947-.647-5.253-1.941-6.916C36.833 6.832 35.031 6 32.722 6c-2.287 0-4.078.832-5.372 2.496-1.294 1.663-1.94 3.957-1.94 6.88v1.23c0 2.947.643 5.25 1.932 6.907C28.63 25.171 30.435 26 32.755 26zm-.016-4c-1.63 0-2.444-1.63-2.444-4.893V15.91c0-1.665.213-2.9.639-3.704.425-.804 1.017-1.206 1.773-1.206.788 0 1.398.402 1.829 1.206.43.804.646 2.039.646 3.704l-.016 2.007C35.05 20.64 34.241 22 32.74 22zm16 4v-7.287h4.175V26h4.745V7h-4.745v7.604h-4.175V7h-4.762v19h4.762zm21.642 0V11.091h4.869V7H60.59v4.091h4.835V26h4.956zm11.41 0c1.53 0 2.743-.618 3.638-1.854.141.701.283 1.2.424 1.497h5.033v-.303c-.447-.938-.683-2.24-.706-3.903v-9.073c0-2.044-.574-3.616-1.722-4.715C87.31 6.549 85.688 6 83.592 6c-2.025 0-3.7.58-5.025 1.738-1.324 1.159-1.986 2.63-1.986 4.412h4.998c0-1.474.624-2.21 1.872-2.21.565 0 .995.178 1.29.534.294.357.44.969.44 1.836v1.551h-1.518c-2.402.024-4.242.588-5.52 1.693-1.277 1.106-1.916 2.668-1.916 4.688 0 1.7.527 3.084 1.581 4.154C78.862 25.466 80.189 26 81.791 26zm1.948-4c-1.099 0-1.648-.692-1.648-2.076 0-.888.242-1.598.727-2.128S83.967 17 84.808 17H86v3.893c-.187.3-.473.56-.859.778-.386.22-.853.329-1.402.329zm15.148 4l2.5-7.024h1.677V26h4.928v-7.024h1.695L112.17 26h6.064l-4.666-10.36L118.25 7h-6.116l-2.744 7.077h-1.398V7h-4.928v7.077h-1.398L98.957 7h-6.116l4.753 8.762L92.964 26h5.923zm27.057 0v-7.287h4.175V26h4.745V7h-4.745v7.604h-4.175V7h-4.762v19h4.762zm17.579 0l4.215-11.677V26h4.717V7h-4.717l-4.215 11.66V7h-4.75v19h4.75zm17.778 0v-6.971h1.296L165.434 26H172l-5.376-10.238L171.614 7H165.4l-2.872 7.13h-1.226V7h-4.937v19h4.937z"/>
</svg>
