<svg xmlns="http://www.w3.org/2000/svg" xmlns:xlink="http://www.w3.org/1999/xlink" viewBox="0 0 506.37 539.82"><defs><linearGradient id="a" x1="258.41" y1="212.88" x2="424.25" y2="73.72" gradientUnits="userSpaceOnUse"><stop offset="0" stop-color="#757575"/><stop offset="0.58" stop-color="#242424"/></linearGradient><linearGradient id="b" x1="242.99" y1="300.04" x2="506.37" y2="300.04" xlink:href="#a"/><linearGradient id="c" x1="249.23" y1="297.45" x2="331.17" y2="522.6" xlink:href="#a"/><linearGradient id="d" x1="176.96" y1="195.11" x2="176.96" y2="0" xlink:href="#a"/><linearGradient id="e" x1="106.26" y1="205.71" x2="106.26" y2="539.82" xlink:href="#a"/><linearGradient id="f" x1="230.67" y1="208.62" x2="0" y2="208.62" xlink:href="#a"/></defs><title>logo-drobosvg</title><path d="M373.44,37.2A268.65,268.65,0,0,0,263.77,1.35h0c.8.37,1.6.76,2.39,1.16l.55.28c.79.41,1.58.83,2.37,1.28l.09,0c.77.43,1.53.88,2.29,1.34l.51.31c.78.49,1.56,1,2.34,1.5l.21.14q1.08.74,2.16,1.5l.46.32c.77.56,1.55,1.13,2.31,1.72l.29.22c.7.54,1.4,1.1,2.1,1.67l.39.32c.77.63,1.53,1.27,2.28,1.93l.33.3c.7.61,1.38,1.23,2.07,1.86l.33.3c.75.7,1.49,1.42,2.24,2.15l.36.37c.69.68,1.38,1.38,2.06,2.09l.24.24c.74.78,1.47,1.57,2.21,2.37l.38.43c.7.77,1.4,1.56,2.09,2.36l.12.14c.73.85,1.45,1.71,2.17,2.59.13.16.26.33.4.49q2.14,2.64,4.25,5.48l.4.54c1.4,1.89,2.78,3.85,4.14,5.86l.39.59c.68,1,1.36,2,2,3.08a1,1,0,0,1,.11.17c.64,1,1.27,2,1.89,3l.39.62c.65,1.07,1.3,2.14,1.94,3.24l.22.38c.59,1,1.17,2,1.74,3l.37.64c.62,1.12,1.24,2.25,1.86,3.4l.3.56c.55,1,1.09,2.07,1.64,3.12.11.21.22.42.32.63.61,1.18,1.2,2.37,1.8,3.57l.34.7c.52,1.07,1.05,2.16,1.57,3.26.09.2.18.4.28.59.58,1.23,1.15,2.48,1.71,3.73l.38.84c.51,1.13,1,2.28,1.51,3.43.08.18.16.35.23.53.56,1.28,1.1,2.58,1.65,3.89.13.31.25.63.38.94.51,1.24,1,2.49,1.52,3.75a3.05,3.05,0,0,0,.13.32c.53,1.35,1.06,2.72,1.58,4.09.12.34.25.67.37,1,.53,1.4,1.05,2.8,1.56,4.21,10.79,29.81,18.48,63.46,22.86,100,.08.59.14,1.18.2,1.78l.47,3.9,0,0a584,584,0,0,1,3.51,64.14A586.89,586.89,0,0,1,360,334q8.36-6.42,16.25-13l1.39-1.16,3.06-2.59c.89-.76,1.78-1.52,2.66-2.29l1.61-1.39c1.27-1.11,2.54-2.22,3.79-3.34l.29-.26a415.54,415.54,0,0,0,40.81-41.71c44.19-52.62,58.89-101.24,40.34-133.41A271.18,271.18,0,0,0,373.44,37.2Z" style="fill:url(#a)"/><path d="M470.23,404.76l.07.05,0,0A270.72,270.72,0,0,0,482.65,159c2.77,31.41-14.13,70.77-49,112.27a423.54,423.54,0,0,1-48.92,48.89q-12.54,10.75-26.31,21.1l-4.5,3.38v-.08a572.48,572.48,0,0,1-53.7,35.07A588.56,588.56,0,0,1,243,408.73c31.74,13.22,62.59,22.53,91.78,27.71,25.13,4.47,47.75,5.68,67.2,3.79C434.78,437,458.58,424.92,470.23,404.76Z" style="fill:url(#b)"/><path d="M405.25,444.67l-.52.06-2.85.29-1.63.15-1.72.14-2.83.2-.49,0c-18.23,1.08-38.83-.3-61.37-4.27-31.14-5.53-64.11-15.69-98-30.22a579.83,579.83,0,0,1-62.42-31.33l-2.35-1.38a585.91,585.91,0,0,1-51.42-33.72c4.43,33.9,11.79,65.29,21.92,93.37q3.94,10.93,8.33,20.78a227.1,227.1,0,0,0,21.17,38.14c19.41,27.65,42.09,42.71,65.71,42.71a269.13,269.13,0,0,0,218.64-112C442.57,436.6,425.6,442.33,405.25,444.67Z" style="fill:url(#c)"/><path d="M332,101.63c-.73-2-1.47-4-2.22-6s-1.5-3.87-2.27-5.76l0-.05C308.17,42.11,282.25,11.54,254,2.68A57,57,0,0,0,236.78,0H0V117.91c10.71-5.45,29.31-13.83,41.06-17.09,1.16-.38,2.33-.76,3.52-1.11l.35-.11c1.34-.39,2.71-.77,4.1-1.12l.37-.1c1.38-.35,2.79-.68,4.22-1L54,97.3c1.42-.31,2.87-.59,4.34-.86l.44-.08Q61,96,63.25,95.64l.49-.08c1.49-.21,3-.41,4.53-.58l.54-.07c1.52-.17,3.07-.32,4.63-.45L74,94.4c1.55-.12,3.12-.23,4.7-.32l.66,0c1.57-.08,3.17-.14,4.78-.19l.71,0c1.6,0,3.22-.06,4.85-.07h.78c1.58,0,3.18,0,4.79.06h1c1.57,0,3.16.11,4.75.18l1.11,0c1.55.08,3.12.18,4.69.29l1.3.08c1.52.11,3.06.25,4.61.39l1.5.13c1.5.14,3,.31,4.54.48l1.68.18c1.5.17,3,.37,4.54.57l1.78.23c1.58.22,3.17.46,4.76.71l1.68.25c2.16.34,4.34.7,6.54,1.1q15.45,2.79,31.34,7a484.94,484.94,0,0,1,66.66,23.2l5.16,2.21-.06,0A604.82,604.82,0,0,1,300.15,160a586.2,586.2,0,0,1,53.77,35.11C349.5,161.15,342.13,129.73,332,101.63Z" style="fill:url(#d)"/><path d="M212.51,539.82c-13.75-6.38-29.53-19.17-41.44-34.77-9-11.78-17.31-26-24.78-42.59,0-.09-.08-.19-.13-.28-.47-1.06-.94-2.12-1.41-3.2q-4-9.19-7.69-19.26c-10.79-29.81-18.48-63.45-22.87-100-.06-.55-.12-1.11-.19-1.66l-.48-4,0,0a590.84,590.84,0,0,1,0-128.34l-.46.36-2.56,2c-.84.65-1.68,1.3-2.5,1.95l-3.16,2.51-1.73,1.39L99.34,217l-.93.77c-1.48,1.23-3,2.46-4.41,3.7l-.14.11A426.81,426.81,0,0,0,43.7,271.43l0,0-2.61,3.17S11.83,309.11,0,326.71V539.62Z" style="fill:url(#e)"/><path d="M230.13,130.68l-2.59-1.06c-1.15-.47-2.3-1-3.45-1.41l-2.67-1.05c-1.12-.44-2.24-.89-3.36-1.32l-2.7-1L212,123.56l-2.73-1L206,121.38l-2.73-1L200,119.29l-2.71-.92c-1.09-.37-2.17-.73-3.26-1.08q-1.35-.45-2.7-.87c-1.09-.35-2.17-.7-3.26-1l-2.68-.83-3.25-1c-.89-.27-1.77-.53-2.66-.78l-3.27-.94-2.61-.73-2.57-.69-.72-.2-2.58-.68-3.32-.84c-.84-.21-1.68-.43-2.52-.63-1.13-.28-2.26-.54-3.39-.81l-2.41-.56-3.54-.79-2.24-.49c-1.31-.28-2.61-.54-3.91-.8l-1.84-.38-5.71-1.08q-3.22-.57-6.39-1.07l-2.41-.36c-1.29-.2-2.59-.4-3.86-.57-1-.14-1.94-.25-2.9-.38s-2.18-.29-3.25-.41-2.07-.23-3.11-.34-2-.22-2.91-.31-2.18-.19-3.26-.29l-2.63-.22L104.79,99l-2.38-.15c-1.17-.06-2.32-.1-3.47-.14l-2.16-.09-3.54-.06-2,0q-5.11,0-10,.18h0c-1.71.07-3.4.17-5.07.29h0a135.62,135.62,0,0,0-35.11,6.82A357.44,357.44,0,0,0,0,123.51v195.2c9.43-14.08,22.7-31.46,41.06-51.59,20.18-23.77,45.08-46.86,74.07-68.65l4.5-3.38v0a574.46,574.46,0,0,1,51.44-33.77c.79-.45,1.56-.92,2.35-1.37a587.29,587.29,0,0,1,57.25-29.1Z" style="fill:url(#f)"/></svg>