<svg width="172" height="173" viewBox="0 0 172 173" fill="none" xmlns="http://www.w3.org/2000/svg">
<path d="M28.6221 61.3097C27.0854 61.3097 25.5833 61.7654 24.3056 62.6191C23.0279 63.4728 22.032 64.6863 21.444 66.106C20.8559 67.5257 20.702 69.0879 21.0018 70.595C21.3016 72.1022 22.0416 73.4866 23.1282 74.5732C24.2148 75.6598 25.5992 76.3997 27.1063 76.6995C28.6135 76.9993 30.1757 76.8455 31.5954 76.2574C33.0151 75.6693 34.2285 74.6735 35.0823 73.3958C35.936 72.1181 36.3917 70.6159 36.3917 69.0793C36.3894 67.0193 35.5702 65.0444 34.1136 63.5878C32.657 62.1312 30.682 61.3119 28.6221 61.3097ZM28.6221 72.1454C28.0156 72.1454 27.4227 71.9655 26.9184 71.6285C26.4142 71.2916 26.0211 70.8127 25.7891 70.2523C25.557 69.692 25.4963 69.0754 25.6146 68.4806C25.733 67.8857 26.025 67.3393 26.4539 66.9105C26.8828 66.4817 27.4292 66.1896 28.0241 66.0714C28.6189 65.9531 29.2355 66.0139 29.7958 66.246C30.3561 66.4781 30.835 66.8712 31.1719 67.3755C31.5088 67.8799 31.6886 68.4728 31.6885 69.0793C31.6876 69.8922 31.3642 70.6715 30.7893 71.2462C30.2144 71.821 29.435 72.1442 28.6221 72.145V72.1454Z" fill="black"/>
<path d="M8.73408 50.1747H8.7371L14.0741 50.1411C11.6567 52.4429 10.145 55.8386 10.145 59.7072C10.1449 59.8037 10.1511 59.9001 10.1635 59.9958L13.2205 84.101C13.2557 85.7959 13.8592 87.4299 14.9341 88.7408C16.009 90.0518 17.493 90.9637 19.1481 91.3304V98.684C19.1487 99.3322 19.2777 99.9738 19.5275 100.572C19.7773 101.17 20.143 101.713 20.6036 102.168C21.0642 102.624 21.6105 102.985 22.2111 103.228C22.8116 103.472 23.4545 103.595 24.1025 103.589H32.0394C32.6854 103.594 33.3259 103.471 33.9238 103.226C34.5217 102.982 35.065 102.621 35.5222 102.164C35.9793 101.708 36.3412 101.165 36.5868 100.568C36.8325 99.9703 36.9569 99.33 36.9528 98.684V91.495H98.7653V144.218C98.7506 145.544 98.9999 146.859 99.4986 148.087C99.9973 149.315 100.735 150.431 101.67 151.371C102.605 152.311 103.717 153.055 104.942 153.56C106.167 154.066 107.481 154.323 108.806 154.315H155.413C156.747 154.326 158.07 154.072 159.306 153.57C160.541 153.068 161.666 152.326 162.614 151.388C163.562 150.449 164.315 149.333 164.831 148.103C165.346 146.872 165.613 145.552 165.617 144.218V75.4768C165.613 72.7735 164.536 70.1823 162.623 68.2726C160.71 66.3628 158.117 65.2907 155.413 65.2919H146.932C146.066 61.5966 142.861 59.245 139.048 59.245H131.929C131.878 57.5456 131.493 55.8729 130.795 54.3224C130.098 52.7718 129.102 51.3739 127.864 50.2083L133.358 50.1653C133.677 50.1607 133.993 50.0918 134.285 49.9629C134.578 49.834 134.842 49.6475 135.061 49.4147C135.28 49.1819 135.45 48.9074 135.561 48.6075C135.671 48.3077 135.721 47.9886 135.706 47.6693C135.588 46.0301 135.268 44.4119 134.752 42.8516C133.579 39.3343 129.914 37.0593 125.413 37.0593C122.915 37.0593 118.507 37.0425 116.268 37.0342L112.161 29.5199C109.137 24.0972 104.711 17.9247 97.2835 17.9247H45.2468C39.2036 17.9247 33.8622 22.0144 30.1914 29.5411L25.9136 37.0943C23.6715 37.0899 19.1948 37.0684 16.68 37.0684C12.1784 37.0684 8.51202 39.3343 7.34095 42.8512C6.82503 44.4088 6.50445 46.0243 6.38655 47.6609C6.37112 47.9828 6.4205 48.3046 6.53176 48.6071C6.64302 48.9095 6.81389 49.1866 7.03424 49.4218C7.25237 49.6552 7.51535 49.8422 7.80743 49.9715C8.0995 50.1009 8.41467 50.17 8.73408 50.1747V50.1747ZM32.2497 98.684C32.2497 98.8288 32.1825 98.8856 32.0394 98.8856H24.1025C23.9581 98.8856 23.8513 98.8298 23.8513 98.684V91.495H32.2497V98.684ZM98.7653 75.4758V86.7919H20.7942C20.4172 86.7926 20.0438 86.719 19.6952 86.5753C19.3466 86.4317 19.0298 86.2208 18.7627 85.9546C18.4957 85.6885 18.2837 85.3724 18.1389 85.0243C17.994 84.6762 17.9192 84.303 17.9186 83.926C17.9186 83.8289 17.9123 83.732 17.8998 83.6357L14.8502 59.5507C14.9123 54.854 18.0873 52.0119 21.2827 51.7956C21.3969 51.8236 21.513 51.8432 21.63 51.8544H120.255C120.272 51.8544 120.289 51.9098 120.307 51.9098C124.36 51.9098 126.95 55.5497 127.216 59.245H125.172C121.359 59.245 118.153 61.5966 117.287 65.2919H108.806C107.476 65.2945 106.16 65.5608 104.933 66.0753C103.707 66.5899 102.595 67.3425 101.661 68.2896C100.727 69.2368 99.9905 70.3596 99.4935 71.5933C98.9965 72.8269 98.749 74.1469 98.7653 75.4768V75.4758ZM86.9101 47.1512C87.3565 45.3002 88.4127 43.6532 89.9086 42.4752C91.4046 41.2972 93.2533 40.6567 95.1574 40.6567C97.0614 40.6567 98.9102 41.2972 100.406 42.4752C101.902 43.6532 102.958 45.3002 103.405 47.1512H86.9101ZM146.843 69.995H155.413C156.135 69.9938 156.849 70.1346 157.516 70.4094C158.182 70.6842 158.788 71.0877 159.299 71.5967C159.81 72.1057 160.215 72.7104 160.492 73.3762C160.769 74.0419 160.913 74.7557 160.914 75.4768V144.218C160.911 144.935 160.766 145.644 160.487 146.304C160.208 146.964 159.801 147.562 159.29 148.064C158.778 148.565 158.172 148.961 157.507 149.226C156.841 149.492 156.13 149.623 155.413 149.612H108.806C108.098 149.62 107.396 149.486 106.741 149.217C106.086 148.948 105.492 148.55 104.994 148.047C104.496 147.543 104.104 146.945 103.842 146.288C103.58 145.63 103.453 144.926 103.468 144.218V75.4768C103.468 72.444 105.773 69.995 108.806 69.995H117.376C117.879 71.6646 118.911 73.1251 120.318 74.1555C121.724 75.1859 123.428 75.7302 125.172 75.7059H139.048C140.791 75.7302 142.495 75.1859 143.902 74.1555C145.308 73.1251 146.341 71.6646 146.843 69.995V69.995ZM139.024 63.9481C139.929 63.9481 140.797 64.3077 141.437 64.9479C142.078 65.588 142.437 66.4563 142.437 67.3616V67.9253C142.437 68.8306 142.078 69.6988 141.437 70.339C140.797 70.9791 139.929 71.3387 139.024 71.3387H125.023C124.117 71.3387 123.249 70.9791 122.609 70.339C121.969 69.6988 121.609 68.8306 121.609 67.9253V67.3616C121.609 66.4563 121.969 65.588 122.609 64.9479C123.249 64.3077 124.117 63.9481 125.023 63.9481H139.024ZM125.41 41.7581C127.815 41.7581 129.777 42.7925 130.289 44.3321C130.414 44.7063 130.517 45.0711 130.603 45.4202L120.818 45.4235L118.821 41.7426C121.032 41.7507 123.679 41.7581 125.41 41.7581ZM34.3224 31.7653C34.3466 31.7226 34.3691 31.7176 34.3896 31.6739C36.0361 28.282 39.6343 22.6278 45.2461 22.6278H97.2828C101.221 22.6278 104.443 25.366 108.04 31.816L116.373 47.1512H108.194C107.718 44.0349 106.141 41.1923 103.749 39.1384C101.358 37.0846 98.3092 35.9554 95.1567 35.9554C92.0041 35.9554 88.9558 37.0846 86.5641 39.1384C84.1724 41.1923 82.5954 44.0349 82.119 47.1512H25.6573L34.3224 31.7653ZM11.8012 44.3321C12.3145 42.7925 14.275 41.7581 16.68 41.7581C18.4034 41.7581 21.0472 41.7621 23.2624 41.7658L21.2101 45.4044L11.4881 45.4168C11.5738 45.0701 11.6769 44.7049 11.8012 44.3321Z" fill="black"/>
<path d="M96.6331 65.3984C95.3851 61.7309 91.3716 58.9091 87.4959 58.9091H54.4585C50.5707 58.9091 46.5801 61.7497 45.3727 65.4457L43.7182 70.4848C43.603 70.848 43.573 71.2329 43.6305 71.6096C43.6881 71.9863 43.8317 72.3447 44.0501 72.657C44.2649 72.9656 44.5488 73.2198 44.8793 73.3993C45.2098 73.5787 45.5777 73.6783 45.9535 73.6903H96.1369C96.516 73.6759 96.8864 73.5727 97.2185 73.3892C97.5505 73.2056 97.8348 72.9468 98.0487 72.6334C98.2665 72.3276 98.4085 71.9743 98.4632 71.6029C98.5178 71.2314 98.4836 70.8522 98.3631 70.4965L96.6331 65.3984ZM49.1953 68.9872L49.8437 66.9803C50.4148 65.2287 52.6155 63.6122 54.4585 63.6122H87.4959C89.3503 63.6122 91.5833 65.2317 92.1802 66.9877L92.8521 68.9872H49.1953Z" fill="black"/>
<path d="M90.4184 77.7216H51.4033C50.7796 77.7216 50.1815 77.9693 49.7405 78.4103C49.2995 78.8513 49.0518 79.4494 49.0518 80.0731C49.0518 80.6968 49.2995 81.2949 49.7405 81.7359C50.1815 82.1769 50.7796 82.4247 51.4033 82.4247H90.4184C91.0421 82.4247 91.6402 82.1769 92.0813 81.7359C92.5223 81.2949 92.77 80.6968 92.77 80.0731C92.77 79.4494 92.5223 78.8513 92.0813 78.4103C91.6402 77.9693 91.0421 77.7216 90.4184 77.7216V77.7216Z" fill="black"/>
<path d="M111.547 99.5575H114.04C114.664 99.5575 115.262 99.3097 115.703 98.8687C116.144 98.4277 116.392 97.8296 116.392 97.2059C116.392 96.5822 116.144 95.9841 115.703 95.5431C115.262 95.1021 114.664 94.8543 114.04 94.8543H113.883V88.4715H120.534C120.847 89.1434 121.654 89.9987 122.691 89.9987C123.314 89.9784 123.905 89.7115 124.332 89.2566C124.759 88.8017 124.988 88.1959 124.969 87.5722V85.9705C124.982 85.6774 124.935 85.3847 124.829 85.1112C124.723 84.8377 124.561 84.5893 124.353 84.382C124.145 84.1747 123.897 84.013 123.623 83.9074C123.349 83.8017 123.057 83.7544 122.764 83.7684H111.547C110.249 83.7684 109.18 84.6714 109.18 85.9705V97.1861C109.183 97.8135 109.433 98.4145 109.876 98.8585C110.319 99.3025 110.92 99.5537 111.547 99.5575V99.5575Z" fill="black"/>
<path d="M111.531 121.057H122.617C123.241 121.057 123.839 120.81 124.28 120.369C124.721 119.928 124.969 119.33 124.969 118.706V107.62C124.969 106.996 124.721 106.398 124.28 105.957C123.839 105.516 123.241 105.268 122.617 105.268H111.531C110.908 105.268 110.309 105.516 109.868 105.957C109.427 106.398 109.18 106.996 109.18 107.62V118.706C109.18 119.33 109.427 119.928 109.868 120.369C110.309 120.81 110.908 121.057 111.531 121.057ZM113.883 109.972H120.266V116.69H113.883V109.972Z" fill="black"/>
<path d="M114.04 138.526H113.883V131.808H120.413C120.405 132.113 120.458 132.417 120.568 132.701C120.679 132.986 120.845 133.245 121.057 133.465C121.269 133.685 121.523 133.86 121.803 133.981C122.083 134.101 122.385 134.165 122.69 134.168C122.992 134.174 123.291 134.119 123.571 134.006C123.85 133.893 124.104 133.725 124.317 133.512C124.53 133.298 124.697 133.044 124.809 132.764C124.921 132.484 124.976 132.185 124.969 131.884V129.589C124.969 128.29 124.062 127.105 122.764 127.105H111.547C110.909 127.135 110.306 127.409 109.865 127.872C109.424 128.334 109.179 128.949 109.18 129.588V140.804C109.181 141.437 109.428 142.045 109.871 142.498C110.313 142.951 110.915 143.213 111.547 143.229H114.04C114.664 143.229 115.262 142.982 115.703 142.541C116.144 142.1 116.392 141.502 116.392 140.878C116.392 140.254 116.144 139.656 115.703 139.215C115.262 138.774 114.664 138.526 114.04 138.526V138.526Z" fill="black"/>
<path d="M128.266 86.5231L121.274 93.5163L119.131 91.3741C118.913 91.1557 118.654 90.9825 118.368 90.8643C118.083 90.7461 117.777 90.6853 117.468 90.6853C117.16 90.6853 116.854 90.7461 116.568 90.8643C116.283 90.9825 116.024 91.1557 115.805 91.3741C115.587 91.5924 115.414 91.8517 115.296 92.137C115.178 92.4223 115.117 92.7281 115.117 93.0369C115.117 93.3458 115.178 93.6516 115.296 93.9369C115.414 94.2222 115.587 94.4815 115.805 94.6998L119.61 98.5047C119.829 98.7231 120.088 98.8963 120.373 99.0145C120.659 99.1327 120.964 99.1935 121.273 99.1935C121.582 99.1935 121.888 99.1327 122.173 99.0145C122.458 98.8963 122.718 98.7231 122.936 98.5047L131.593 89.8472C131.812 89.6288 131.985 89.3696 132.103 89.0843C132.221 88.799 132.282 88.4931 132.282 88.1843C132.282 87.8755 132.221 87.5697 132.103 87.2844C131.985 86.9991 131.812 86.7398 131.593 86.5214C131.375 86.3031 131.116 86.1298 130.83 86.0117C130.545 85.8935 130.239 85.8326 129.93 85.8326C129.622 85.8326 129.316 85.8935 129.03 86.0117C128.745 86.1298 128.486 86.3031 128.267 86.5214L128.266 86.5231Z" fill="black"/>
<path d="M128.266 130.484L121.274 137.479L119.131 135.336C118.913 135.118 118.654 134.945 118.368 134.826C118.083 134.708 117.777 134.647 117.468 134.647C117.16 134.647 116.854 134.708 116.568 134.826C116.283 134.945 116.024 135.118 115.805 135.336C115.587 135.555 115.414 135.814 115.296 136.099C115.178 136.385 115.117 136.69 115.117 136.999C115.117 137.308 115.178 137.614 115.296 137.899C115.414 138.184 115.587 138.444 115.805 138.662L119.61 142.467C119.829 142.685 120.088 142.858 120.373 142.977C120.659 143.095 120.964 143.156 121.273 143.156C121.582 143.156 121.888 143.095 122.173 142.977C122.458 142.858 122.718 142.685 122.936 142.467L131.594 133.81C132.035 133.369 132.282 132.771 132.282 132.147C132.282 131.523 132.035 130.925 131.594 130.484C131.153 130.043 130.554 129.795 129.931 129.795C129.307 129.795 128.709 130.043 128.268 130.484H128.266Z" fill="black"/>
<path d="M135.367 91.495C135.367 92.1187 135.614 92.7168 136.055 93.1578C136.496 93.5988 137.095 93.8466 137.718 93.8466H152.673C153.297 93.8466 153.895 93.5988 154.336 93.1578C154.777 92.7168 155.024 92.1187 155.024 91.495C155.024 90.8713 154.777 90.2732 154.336 89.8322C153.895 89.3912 153.297 89.1434 152.673 89.1434H137.718C137.095 89.1434 136.496 89.3912 136.055 89.8322C135.614 90.2732 135.367 90.8713 135.367 91.495V91.495Z" fill="black"/>
<path d="M152.673 110.979H137.718C137.095 110.979 136.496 111.227 136.055 111.668C135.614 112.109 135.367 112.707 135.367 113.331C135.367 113.955 135.614 114.553 136.055 114.994C136.496 115.435 137.095 115.682 137.718 115.682H152.673C153.297 115.682 153.895 115.435 154.336 114.994C154.777 114.553 155.024 113.955 155.024 113.331C155.024 112.707 154.777 112.109 154.336 111.668C153.895 111.227 153.297 110.979 152.673 110.979Z" fill="black"/>
<path d="M152.673 132.815H137.718C137.095 132.815 136.496 133.063 136.055 133.504C135.614 133.945 135.367 134.543 135.367 135.167C135.367 135.791 135.614 136.389 136.055 136.83C136.496 137.271 137.095 137.518 137.718 137.518H152.673C153.297 137.518 153.895 137.271 154.336 136.83C154.777 136.389 155.024 135.791 155.024 135.167C155.024 134.543 154.777 133.945 154.336 133.504C153.895 133.063 153.297 132.815 152.673 132.815Z" fill="black"/>
</svg>
