<svg width="172" height="173" viewBox="0 0 172 173" fill="none" xmlns="http://www.w3.org/2000/svg">
<g clip-path="url(#clip0)">
<path d="M101.304 62.1154H110.432C111.612 62.1154 112.57 61.1576 112.57 59.977C112.57 58.7951 111.612 57.8386 110.432 57.8386H101.304C100.122 57.8386 99.166 58.7951 99.166 59.977C99.166 61.1576 100.122 62.1154 101.304 62.1154Z" fill="black"/>
<path d="M61.1091 62.1154H93.121C94.303 62.1154 95.2594 61.1576 95.2594 59.977C95.2594 58.7951 94.303 57.8386 93.121 57.8386H61.1091C59.9285 57.8386 58.9707 58.7951 58.9707 59.977C58.9707 61.1576 59.9285 62.1154 61.1091 62.1154Z" fill="black"/>
<path d="M39.1487 62.1154H52.7628C53.9434 62.1154 54.9012 61.1576 54.9012 59.977C54.9012 58.7951 53.9434 57.8386 52.7628 57.8386H39.1487C37.9667 57.8386 37.0103 58.7951 37.0103 59.977C37.0103 61.1576 37.9667 62.1154 39.1487 62.1154Z" fill="black"/>
<path d="M88.0395 76.6792H50.1233C48.9413 76.6792 47.9849 77.637 47.9849 78.8176C47.9849 79.9982 48.9413 80.956 50.1233 80.956H88.0395C89.22 80.956 90.1779 79.9982 90.1779 78.8176C90.1779 77.637 89.22 76.6792 88.0395 76.6792Z" fill="black"/>
<path d="M39.1487 80.956H43.1178C44.2984 80.956 45.2562 79.9982 45.2562 78.8176C45.2562 77.637 44.2984 76.6792 43.1178 76.6792H39.1487C37.9667 76.6792 37.0103 77.637 37.0103 78.8176C37.0103 79.9982 37.9667 80.956 39.1487 80.956Z" fill="black"/>
<path d="M39.1487 100.971H64.5449C65.7269 100.971 66.6833 100.014 66.6833 98.833C66.6833 97.6524 65.7269 96.6946 64.5449 96.6946H39.1487C37.9667 96.6946 37.0103 97.6524 37.0103 98.833C37.0103 100.014 37.9667 100.971 39.1487 100.971Z" fill="black"/>
<path d="M49.4146 115.193H39.1487C37.9667 115.193 37.0103 116.15 37.0103 117.331C37.0103 118.513 37.9667 119.469 39.1487 119.469H49.4146C50.5952 119.469 51.553 118.513 51.553 117.331C51.553 116.15 50.5952 115.193 49.4146 115.193Z" fill="black"/>
<path d="M163.076 47.4892C160.304 43.282 154.649 42.1111 150.436 44.8732L148.114 46.3991H148.108L144.018 49.0902V17.6337C144.013 12.5954 139.929 8.5121 134.891 8.50653H88.0732C85.6327 3.38328 80.4649 0.119995 74.7903 0.119995C69.1144 0.119995 63.9466 3.38328 61.5061 8.50653H14.6882C9.64989 8.5121 5.5666 12.5954 5.56104 17.6337V162.996C5.56939 168.033 9.65128 172.114 14.6882 172.121H134.891C139.928 172.115 144.01 168.033 144.018 162.996V75.4638L162.538 63.2947C166.746 60.5228 167.916 54.8691 165.154 50.655L163.076 47.4892ZM83.6933 109.982L81.1651 106.132L153.549 58.571L156.079 62.4204L83.6933 109.982ZM123.534 128.519H112.283C107.245 128.524 103.162 132.606 103.156 137.644V148.598H27.4017C26.6541 148.597 26.0485 147.99 26.0471 147.242V33.3863C26.0485 32.6373 26.6541 32.0317 27.4017 32.0289H37.0105V37.8998C37.0105 39.0803 37.967 40.0382 39.1489 40.0382H110.432C111.612 40.0382 112.57 39.0803 112.57 37.8998V32.0289H122.178C122.925 32.0303 123.532 32.6373 123.534 33.3863V62.5498L72.1521 96.3104C72.1187 96.3326 72.0881 96.3563 72.0561 96.3814C72.0366 96.3953 72.0171 96.4092 71.9976 96.4245C71.9321 96.476 71.8695 96.5317 71.8096 96.5902L71.8068 96.593C71.7498 96.6515 71.6955 96.7141 71.6454 96.7795C71.6328 96.7949 71.6217 96.8102 71.6092 96.8255C71.5688 96.8798 71.5312 96.9369 71.4964 96.9953C71.4894 97.0051 71.4825 97.0134 71.4755 97.0246L61.7608 113.766L58.8734 115.662C57.8864 116.311 57.6121 117.636 58.2609 118.623C58.9096 119.61 60.235 119.884 61.2221 119.236L64.1094 117.339L83.33 115.067C83.3411 115.067 83.3523 115.063 83.3634 115.062C83.3982 115.056 83.4316 115.049 83.4664 115.042C83.5291 115.031 83.5903 115.019 83.6502 115.002C83.6864 114.992 83.7226 114.98 83.7574 114.966C83.8159 114.946 83.8729 114.925 83.9286 114.902C83.9634 114.886 83.9996 114.87 84.033 114.853C84.0873 114.825 84.1402 114.796 84.1917 114.764C84.2126 114.751 84.2335 114.743 84.2544 114.728L123.534 88.922V128.519ZM120.596 132.795L107.433 145.959V137.644C107.436 134.967 109.606 132.798 112.283 132.795H120.596ZM79.3929 111.225L67.3546 112.649L73.4399 102.163L76.4164 106.695L79.3929 111.225ZM78.8165 102.559L76.2883 98.7091L143.073 54.8288L143.077 54.826L148.672 51.1492L151.202 54.9986L78.8165 102.559ZM134.891 12.7833C137.568 12.7861 139.737 14.9551 139.741 17.6337V51.8996L127.81 59.7404V33.3863C127.806 30.2762 125.286 27.7563 122.178 27.7521H112.57V21.1281C112.57 19.9461 111.612 18.9897 110.432 18.9897H89.5071V14.8382C89.5057 14.1505 89.457 13.4641 89.3609 12.7833H134.891ZM74.7903 4.39819C80.554 4.40375 85.2261 9.07593 85.2317 14.841V21.1281C85.2317 22.3087 86.1895 23.2665 87.3701 23.2665H108.295V35.7614H41.2873V23.2665H62.2105C63.3911 23.2665 64.3489 22.3087 64.3489 21.1281V14.8382C64.3559 9.07454 69.0267 4.40515 74.7903 4.39819ZM139.741 162.996C139.736 165.672 137.567 167.841 134.891 167.844H14.6882C12.0124 167.84 9.8434 165.672 9.83783 162.996V17.6337C9.84062 14.9565 12.011 12.7861 14.6882 12.7833H60.2183C60.1222 13.4641 60.0735 14.1505 60.0721 14.8382V18.9897H39.1489C37.967 18.9897 37.0105 19.9461 37.0105 21.1281V27.7521H27.4017C24.2929 27.7577 21.7744 30.2762 21.7703 33.3863V147.244C21.7744 150.351 24.2929 152.871 27.4017 152.875H103.941C104.225 152.872 104.508 152.851 104.788 152.812C104.953 152.853 105.123 152.874 105.295 152.875C105.913 152.875 106.5 152.606 106.904 152.141C107.462 151.845 107.972 151.467 108.419 151.021L125.956 133.486C127.146 132.301 127.813 130.689 127.809 129.009V86.1112L139.74 78.2704L139.741 162.996ZM160.19 59.7209L159.652 60.0731L152.247 48.802L152.785 48.4498C155.023 46.9782 158.031 47.6005 159.501 49.8392L161.579 53.0036C163.047 55.2422 162.424 58.2466 160.19 59.7195V59.7209Z" fill="black"/>
</g>
<defs>
<clipPath id="clip0">
<path d="M0 0.119995H172V172.12H0V0.119995Z" fill="white"/>
</clipPath>
</defs>
</svg>
