<svg width="172" height="173" viewBox="0 0 172 173" fill="none" xmlns="http://www.w3.org/2000/svg">
<g clip-path="url(#clip0)">
<path d="M115.743 116.891C113.167 114.341 109.269 113.679 105.997 115.237L101.196 110.439C102.985 106.668 101.801 102.155 98.3898 99.7495C94.9789 97.3435 90.3306 97.741 87.3788 100.693L85.3521 102.72L46.8297 64.1943C46.5162 63.878 46.1341 63.6401 45.7114 63.5001L33.5499 59.4551C32.5197 59.1122 31.3832 59.3796 30.6162 60.148C29.8478 60.915 29.5805 62.0515 29.9234 63.0816L33.9768 75.2445C34.1167 75.6658 34.3533 76.0493 34.6682 76.3642L73.1808 114.864L71.1541 116.891C68.1757 119.836 67.7614 124.504 70.1758 127.927C72.5916 131.349 77.1264 132.526 80.9012 130.707L85.702 135.509C84.1372 138.786 84.7993 142.691 87.3564 145.269L93.2923 151.206C94.412 152.329 96.2301 152.331 97.3527 151.213C98.4766 150.093 98.4794 148.275 97.3597 147.153L91.4238 141.215C90.3041 140.097 90.3041 138.282 91.4238 137.162L93.4505 135.135L121.828 163.514L119.802 165.541C119.264 166.079 118.535 166.381 117.773 166.381C117.013 166.381 116.283 166.079 115.745 165.541L114.008 163.804C112.885 162.717 111.096 162.732 109.99 163.838C108.884 164.944 108.869 166.732 109.955 167.856L111.692 169.593C115.051 172.955 120.499 172.955 123.858 169.593L127.911 165.541L136.018 157.434L140.071 153.378C143.429 150.019 143.429 144.575 140.071 141.215L115.743 116.891ZM111.692 120.944L136.018 145.269C136.555 145.806 136.858 146.537 136.858 147.297C136.858 148.058 136.555 148.787 136.018 149.325L133.991 151.352L105.613 122.974L107.639 120.947C108.758 119.827 110.572 119.826 111.692 120.944V120.944ZM39.1988 72.7812L37.1638 66.6983L43.2466 68.725L81.2875 106.752L77.2342 110.805L39.1988 72.7812ZM75.2075 125C74.67 124.463 74.3677 123.732 74.3677 122.972C74.3677 122.211 74.67 121.482 75.2075 120.944L91.421 104.731C92.1404 103.986 93.2069 103.687 94.2091 103.95C95.2112 104.212 95.9936 104.994 96.2553 105.998C96.5185 107 96.2189 108.065 95.4743 108.784L79.2609 124.998C78.1425 126.117 76.3286 126.119 75.2075 125V125ZM97.5038 114.864L101.557 118.918L91.421 129.054L89.3943 131.083L85.3409 127.027L97.5038 114.864ZM125.882 159.458L97.5038 131.081L101.56 127.022L129.938 155.399L125.882 159.458Z" fill="black"/>
<path d="M143.017 64.0418L124.777 82.2834L116.669 74.1752L134.911 55.9407C136.03 54.8223 136.03 53.007 134.911 51.8873C128.19 45.1844 117.31 45.1844 110.589 51.8873L92.3433 70.1302C87.8784 74.6133 87.8784 81.8635 92.3433 86.3451L94.37 88.3718C95.4953 89.4593 97.2826 89.4425 98.3883 88.3368C99.4941 87.2311 99.5095 85.4438 98.4233 84.3198L96.3966 82.2932C94.1572 80.0537 94.1572 76.423 96.3966 74.1836L114.642 55.9407C118.342 52.2498 124.068 51.522 128.573 54.1701L110.589 72.1569C109.469 73.2766 109.469 75.0906 110.589 76.2103L130.857 96.4786L124.777 102.559C122.539 104.798 118.907 104.798 116.669 102.559L114.642 100.532C113.517 99.4458 111.73 99.4612 110.624 100.567C109.518 101.673 109.503 103.46 110.589 104.585L112.616 106.612C117.093 111.089 124.353 111.089 128.831 106.612L147.071 88.3718C153.786 81.6563 153.786 70.7671 147.071 64.0502C145.954 62.9291 144.139 62.9249 143.017 64.0418V64.0418ZM143.017 84.31L134.911 92.4196L128.831 86.3395L144.792 70.3794C147.447 74.8848 146.718 80.6178 143.017 84.3128V84.31Z" fill="black"/>
<path d="M41.673 141.073C37.1956 145.55 37.1956 152.81 41.673 157.287C46.1505 161.765 53.4105 161.765 57.8879 157.287C62.3654 152.81 62.3654 145.55 57.8879 141.073C53.4105 136.595 46.1505 136.595 41.673 141.073V141.073ZM53.8345 153.231C51.5657 155.399 47.9952 155.399 45.7264 153.231C43.4884 150.993 43.4884 147.364 45.7264 145.125C47.9658 142.887 51.5951 142.887 53.8345 145.125C56.0726 147.364 56.074 150.993 53.8345 153.231Z" fill="black"/>
<path d="M72.8604 138.258L67.4941 143.627C66.8335 144.289 66.5368 145.231 66.7005 146.152C68.0288 153.549 64.4009 160.953 57.74 164.435C51.0791 167.916 42.929 166.671 37.6131 161.356C32.2987 156.043 31.0488 147.893 34.5269 141.232C38.0064 134.57 45.4092 130.938 52.8063 132.263C53.73 132.435 54.6776 132.137 55.3354 131.467L60.7003 126.103C61.7626 124.977 61.7374 123.212 60.6443 122.114C59.5526 121.018 57.7862 120.988 56.6567 122.044L52.3052 126.396C42.6267 125.324 33.326 130.48 29.1089 139.256C24.8918 148.033 26.6777 158.516 33.5626 165.403C40.4474 172.289 50.9294 174.075 59.7079 169.859C68.4851 165.643 73.6428 156.343 72.5707 146.666L76.9249 142.311C78.0447 141.19 78.0433 139.375 76.9235 138.256C75.8038 137.137 73.9885 137.138 72.8688 138.258H72.8604Z" fill="black"/>
<path d="M164.863 35.1741L92.2577 1.46365C88.4045 -0.327891 83.9564 -0.327891 80.1032 1.46365L7.49942 35.1741C3.18992 37.1742 1.31859 42.2885 3.32009 46.5966C5.32018 50.9047 10.4345 52.776 14.7426 50.7759L82.5175 19.3049C84.8396 18.2244 87.5213 18.2244 89.8433 19.3049L157.618 50.7759C161.928 52.776 167.042 50.9047 169.042 46.5966C171.042 42.2885 169.171 37.1742 164.863 35.1741ZM163.842 44.1794C163.522 44.8708 162.941 45.4055 162.226 45.6658C161.511 45.9276 160.723 45.894 160.033 45.5734L92.2577 14.1052C88.4045 12.3137 83.9564 12.3137 80.1032 14.1052L12.3282 45.5734C10.8936 46.2397 9.18739 45.6168 8.52116 44.1808C7.85353 42.7462 8.47637 41.04 9.91241 40.3738L82.5175 6.66333C84.8396 5.58281 87.5213 5.58281 89.8433 6.66333L162.448 40.3738C163.884 41.04 164.509 42.7434 163.842 44.1794Z" fill="black"/>
<path d="M79.9552 43.4026C81.5382 43.4026 82.8216 42.1191 82.8216 40.5361C82.8216 38.9532 81.5382 37.6697 79.9552 37.6697H68.4893C67.4647 37.6697 66.5186 38.2169 66.0063 39.1029L60.2734 49.0334C59.7611 49.9194 59.7611 51.0125 60.2734 51.8999L66.0063 61.8289C66.5186 62.7163 67.4647 63.2622 68.4893 63.2622H79.9552C80.9797 63.2622 81.9259 62.7163 82.4367 61.8289L88.1697 51.8999C88.9493 50.5296 88.4762 48.7885 87.1115 48.0005C85.7469 47.2125 84.0029 47.6729 83.2051 49.0334L78.3008 57.5348H70.1437L66.0637 50.4722L70.1437 43.4026H79.9552Z" fill="black"/>
</g>
<defs>
<clipPath id="clip0">
<path d="M0 0.119995H172V172.12H0V0.119995Z" fill="white"/>
</clipPath>
</defs>
</svg>
