<svg width="172" height="173" viewBox="0 0 172 173" fill="none" xmlns="http://www.w3.org/2000/svg">
<g clip-path="url(#clip0)">
<path d="M171.668 94.065C170.124 78.5317 163.185 63.8876 152.127 52.83C142.678 43.381 131.112 37.3088 118.942 34.6088V26.0732C123.913 24.8366 127.608 20.3373 127.608 14.9894C127.608 8.69118 122.484 3.56738 116.185 3.56738H91.9976C85.6993 3.56738 80.5755 8.69118 80.5755 14.9894C80.5755 20.337 84.2702 24.8363 89.2405 26.0732V34.6327C77.1079 37.3441 65.5804 43.4078 56.1579 52.8304C54.0959 54.8924 52.1944 57.0555 50.4539 59.3036C50.3696 59.2973 50.2853 59.2909 50.1992 59.2909H26.2596C24.4046 59.2909 22.9002 60.7949 22.9002 62.6503C22.9002 64.5057 24.4046 66.0097 26.2596 66.0097H45.8827C43.4196 70.1334 41.4335 74.4641 39.9218 78.922H3.35943C1.50435 78.922 0 80.426 0 82.2815C0 84.1369 1.50435 85.6409 3.35943 85.6409H38.0233C37.0552 89.8909 36.4995 94.2161 36.3561 98.5535H21.5003C19.6453 98.5535 18.1409 100.058 18.1409 101.913C18.1409 103.768 19.6453 105.272 21.5003 105.272H36.4632C36.7468 109.621 37.4459 113.946 38.5609 118.185H16.7971C14.9421 118.185 13.4377 119.689 13.4377 121.544C13.4377 123.4 14.9421 124.904 16.7971 124.904H40.7048C44.0004 133.622 49.1508 141.793 56.1579 148.8C67.2258 159.868 81.885 166.809 97.4345 168.346C99.6537 168.565 101.875 168.673 104.093 168.673C117.202 168.673 130.144 164.879 141.126 157.728C142.681 156.715 143.121 154.634 142.108 153.079C141.096 151.525 139.014 151.085 137.46 152.097C113.421 167.751 81.2263 164.367 60.9088 144.049C37.0696 120.21 37.0696 81.4211 60.9088 57.5816C84.7476 33.7428 123.537 33.7428 147.376 57.5816C167.667 77.8725 171.07 110.039 155.468 134.067C154.457 135.623 154.9 137.704 156.455 138.714C158.012 139.724 160.092 139.282 161.102 137.726C169.438 124.888 173.191 109.382 171.668 94.065ZM87.2944 14.9898C87.2944 12.3963 89.4041 10.2866 91.9976 10.2866H116.185C118.779 10.2866 120.889 12.3963 120.889 14.9898C120.889 17.5832 118.779 19.693 116.185 19.693H115.583H92.5999H91.9976C89.4041 19.693 87.2944 17.5829 87.2944 14.9898ZM95.9594 33.4777V26.4118H112.223V33.4656C106.823 32.8233 101.359 32.8273 95.9594 33.4777Z" fill="black"/>
<path d="M149.753 143.064C148.866 143.064 148.003 143.423 147.378 144.048C146.75 144.673 146.394 145.539 146.394 146.423C146.394 147.306 146.75 148.173 147.378 148.798C148.003 149.426 148.866 149.782 149.753 149.782C150.636 149.782 151.5 149.426 152.128 148.798C152.753 148.173 153.112 147.306 153.112 146.423C153.112 145.539 152.753 144.673 152.128 144.048C151.5 143.423 150.636 143.064 149.753 143.064Z" fill="black"/>
<path d="M104.142 48.7003C75.4064 48.7003 52.0278 72.0786 52.0278 100.815C52.0278 129.551 75.4064 152.929 104.142 152.929C132.878 152.929 156.257 129.551 156.257 100.815C156.257 72.0786 132.878 48.7003 104.142 48.7003ZM104.142 146.21C79.1109 146.21 58.7467 125.846 58.7467 100.815C58.7467 75.7837 79.1109 55.4192 104.142 55.4192C129.174 55.4192 149.538 75.7837 149.538 100.815C149.538 125.846 129.174 146.21 104.142 146.21Z" fill="black"/>
<path d="M125.393 74.8135L108.754 91.4524C107.362 90.7644 105.797 90.3757 104.143 90.3757C102.488 90.3757 100.923 90.7644 99.5316 91.4524L92.0847 84.0055C90.7725 82.6937 88.646 82.6937 87.3335 84.0055C86.0216 85.3174 86.0216 87.4446 87.3335 88.7564L94.7803 96.2033C94.092 97.5948 93.7036 99.1599 93.7036 100.814C93.7036 106.57 98.3864 111.254 104.143 111.254C109.899 111.254 114.582 106.57 114.582 100.814C114.582 99.1599 114.193 97.5948 113.505 96.2033L129.656 80.0525L130.144 79.5644C131.456 78.2525 131.456 76.1253 130.144 74.8135C128.832 73.5016 126.706 73.5016 125.393 74.8135ZM104.143 104.535C102.091 104.535 100.422 102.866 100.422 100.815C100.422 98.7635 102.091 97.0946 104.143 97.0946C106.194 97.0946 107.863 98.7635 107.863 100.815C107.863 102.866 106.194 104.535 104.143 104.535Z" fill="black"/>
<path d="M140.061 97.4963H136.949C135.094 97.4963 133.589 99.0003 133.589 100.856C133.589 102.711 135.094 104.215 136.949 104.215H140.061C141.916 104.215 143.421 102.711 143.421 100.856C143.421 99.0003 141.916 97.4963 140.061 97.4963Z" fill="black"/>
<path d="M71.3362 97.4144H68.2241C66.3691 97.4144 64.8647 98.9184 64.8647 100.774C64.8647 102.629 66.3691 104.133 68.2241 104.133H71.3362C73.1913 104.133 74.6956 102.629 74.6956 100.774C74.6956 98.9184 73.1913 97.4144 71.3362 97.4144Z" fill="black"/>
<path d="M104.184 71.3676C106.039 71.3676 107.543 69.8636 107.543 68.0082V64.8961C107.543 63.0407 106.039 61.5367 104.184 61.5367C102.329 61.5367 100.824 63.0407 100.824 64.8961V68.0082C100.824 69.8636 102.329 71.3676 104.184 71.3676Z" fill="black"/>
<path d="M104.102 130.262C102.247 130.262 100.742 131.766 100.742 133.621V136.733C100.742 138.589 102.247 140.093 104.102 140.093C105.957 140.093 107.461 138.589 107.461 136.733V133.621C107.461 131.766 105.957 130.262 104.102 130.262Z" fill="black"/>
<path d="M3.35938 118.184C2.47586 118.184 1.60914 118.543 0.984297 119.168C0.359453 119.793 0 120.66 0 121.543C0 122.43 0.359117 123.293 0.984297 123.918C1.60948 124.543 2.47586 124.902 3.35938 124.902C4.24289 124.902 5.10961 124.543 5.73412 123.918C6.35896 123.293 6.71875 122.427 6.71875 121.543C6.71875 120.66 6.3593 119.793 5.73412 119.168C5.10961 118.543 4.24289 118.184 3.35938 118.184Z" fill="black"/>
</g>
<defs>
<clipPath id="clip0">
<path d="M0 0.119995H172V172.12H0V0.119995Z" fill="white"/>
</clipPath>
</defs>
</svg>
