<svg xmlns="http://www.w3.org/2000/svg" width="49" height="48" viewBox="0 0 49 48"><g><g><g/><g><path fill="#e0e0e2" d="M18.358 32.838H12.12V15.16h6.238l1.933 1.928V30.91l-1.933 1.928z"/></g><g><path fill="#d7fc7e" d="M10.185 12.85H.7v22.29h9.485l1.933-1.927V14.778l-1.933-1.928z"/></g><g><path fill="#79787d" d="M20.29 17.78l5.406 3.113v6.226l-5.406 3.104z"/></g><g><path fill="#fff5cc" d="M39.38.7h8.037v46.594H39.38z"/></g><g><path fill="#c6c5ca" d="M25.7 22.43h13.684v3.138H25.7z"/></g><g><path fill="#acabb1" d="M12.12 15.16h2.82v17.678h-2.82z"/></g><g><path fill="#55e072" d="M.7 12.85h2.82v22.291H.7z"/></g><g><path fill="#575759" d="M23.11 19.404l-2.82-1.624v12.443l2.82-1.619z"/></g><g><path fill="#ffb655" d="M39.38.7h2.82v46.594h-2.82z"/></g><g><path fill="#787680" d="M25.7 22.43h2.82v3.138H25.7z"/></g><g><path d="M36.747 21.73h.755v1.406h-1.003l-.304 1.732h1.306v1.406h-1.553l-.159.907-1.389-.242.117-.665h-1.031l-.16.907-1.389-.242.117-.665h-1.031l-.16.907-1.389-.242.117-.665H28.56l-.16.907-1.388-.242.116-.665h-.726v1.252l-5.406 3.104v.574l-2.346 2.34H14v-1.406h4.066l1.52-1.516v-13.24l-1.52-1.516H14V14.46h4.65l2.346 2.34v.575l5.406 3.112v1.243h1.525l.16-.907 1.388.243-.116.664h1.03l.16-.907 1.39.243-.118.664h1.031l.16-.907 1.389.243-.117.664h1.031l.16-.907 1.389.243zm-11.755-.43l-3.996-2.302v4.3h2.417v1.407h-2.417v4.302l3.996-2.294zm2.383 3.568l.305-1.732h-1.278v1.732zm2.463 0l.305-1.732h-1.031l-.305 1.732zm2.463 0l.304-1.732h-1.03l-.305 1.732zm2.767-1.732h-1.031l-.304 1.732h1.03z"/></g><g><path d="M15.05 30.005h-2.222v3.502l-2.346 2.34H0V12.15h10.482l2.346 2.34v3.502h2.221v1.406h-2.22v2.13h2.22v1.406h-2.22v2.13h2.22v1.406h-2.22v2.129h2.22zm-3.632-14.932l-1.52-1.517H1.41v20.885h8.488l1.52-1.516z"/></g><g><path d="M48.127 0v48H38.68V0zm-1.41 1.406H40.09v45.188h6.627z"/></g><g><path d="M33.17 17.225l.997-.995 2.857 2.85-.997.994z"/></g><g><path d="M33.17 30.77l2.858-2.85.996.995-2.857 2.849z"/></g><g><g><path fill="#fff" d="M9.61 31.883H8.2V20.798h1.41zm0-12.023H8.2v-1.406h1.41zm0-2.344H8.2V16.11h1.41z"/></g><g><path fill="#fff" d="M18.04 30.223h-1.41v-7.756h1.41zm0-8.693h-1.41v-1.406h1.41zm0-2.344h-1.41V17.78h1.41z"/></g><g><path fill="#fff" d="M45.78 45.533h-1.41v-8.376h1.41zm0-9.313h-1.41v-1.406h1.41zm0-2.344h-1.41V32.47h1.41z"/></g></g></g></g></svg>