<svg xmlns="http://www.w3.org/2000/svg" width="49" height="48" viewBox="0 0 49 48"><g><g><g/><g><path fill="#aeb9cc" d="M36.354 6.8H4.66v38.15h31.694z"/></g><g><path fill="#9ca6b5" d="M34.766 6.8H4.66v36.116h30.106z"/></g><g><path fill="#aeb9cc" d="M32.544 2.76v38.068H.71V11.916L9.89 2.76z"/></g><g><path fill="#c8d0e2" d="M9.89 2.76v9.368H.71v-.212z"/></g><g><path fill="#dde6f2" d="M9.895 5.78v6.349H3.53z"/></g><g><path fill="#c8d0e2" d="M12.7 15.51v.185c-4.44 0-8.04 3.59-8.04 8.019V40.83h27.881V7.49h-11.8c-4.44 0-8.04 3.59-8.04 8.02z"/></g><g><path fill="#2ecc71" d="M45.441 12.51a2.64 2.64 0 0 1-.78 1.879l-.99.987-1.427 1.424-13.879 13.842c-.515.512-2.396 1.986-4.292 3.22-1.066.694-1.967 1.203-2.679 1.513-.35.153-.864.356-1.3.356-.056 0-.11-.004-.164-.012l-.23-.032-.465.464-.053-.052-.262-.26.466-.466-.033-.228c-.073-.51.241-1.226.345-1.461.31-.71.822-1.61 1.517-2.672 1.238-1.892 2.715-3.768 3.229-4.28L39.75 11.464l.99-.988a2.648 2.648 0 0 1 1.883-.777c.71 0 1.38.276 1.883.777l.154.155c.503.501.78 1.169.78 1.878z"/></g><g><path fill="#27ae60" d="M45.44 12.418a2.64 2.64 0 0 1-.779 1.97l-.99.988-1.427 1.424a2.63 2.63 0 0 0-3.712 0l-19.35 19.3-.262-.262.466-.465-.033-.228c-.073-.51.241-1.226.345-1.461.31-.71.822-1.61 1.517-2.672 1.238-1.892 2.715-3.768 3.229-4.28L39.75 11.464l.99-.988a2.648 2.648 0 0 1 1.841-.777c.74-.01 1.447.3 1.97.822l.07.071c.489.487.795 1.136.818 1.825z"/></g><g><path fill="#213847" d="M45.45 12.51c0 .71-.277 1.376-.78 1.879l-.99.987-3.92-3.91.99-.989a2.648 2.648 0 0 1 1.883-.777c.71 0 1.38.276 1.883.777l.154.155a2.632 2.632 0 0 1 .78 1.878z"/></g><g><path fill="#324a5e" d="M45.45 12.507a2.64 2.64 0 0 1-.78 1.878l-.99.987-1.91-1.904.662-.66a2.648 2.648 0 0 1 1.883-.778c.395 0 .778.085 1.125.247.006.076.01.153.01.23z"/></g><g><path d="M29.524 8.51h1.388V4.82H25.98v1.385h3.544z"/></g><g><path d="M30.909 10.19H29.52v1.267h1.389z"/></g><g><path d="M30.906 35.24h-1.389v2.648H24.21v1.385h6.696z"/></g><g><path d="M22.243 37.89H20.55v1.385h1.693z"/></g><g><path d="M29.179 14.87H4.44v1.385h24.739z"/></g><g><path d="M29.179 19.19H4.44v1.385h24.739z"/></g><g><path d="M48.127 15.32l-9.69 9.664-.982-.98 7.099-7.079-.797-.795-6.458 6.441v23H3.996V41.66H0V11.594L9.188 2.43h24.115v3.912h3.996v7.06l2.843-2.836.39-.388a3.15 3.15 0 0 1 2.239-.926 3.15 3.15 0 0 1 2.24.926l.117.117a3.156 3.156 0 0 1 0 4.467l-.39.389.797.795 1.61-1.605zM1.389 40.274h30.525V27.942l-3.102 3.094c-.53.528-2.452 2.036-4.378 3.29-1.09.709-2.017 1.232-2.754 1.554-.439.19-.99.395-1.493.395-.077 0-.153-.006-.227-.016l-.629.627-.982-.98.629-.626c-.079-.557.16-1.21.38-1.716.323-.735.847-1.66 1.559-2.746.356-.545.733-1.09 1.102-1.602H4.437v-1.385h18.618c.506-.65.927-1.148 1.16-1.38l1.558-1.554H4.437v-1.385h22.725l4.752-4.74V3.815H10.17v8.758H1.389zm.981-29.086h6.41V4.794zM30.09 27.803l-2.633-2.626-2.26 2.253c-.43.43-1.737 2.082-2.887 3.798-1.375 2.05-1.85 3.18-1.944 3.647.47-.094 1.6-.567 3.657-1.938 1.72-1.148 3.377-2.451 3.808-2.88zm12.686-12.652l-1.317-1.313-1.316-1.313-11.704 11.673 2.633 2.626zm-1.652-3.606l1.317 1.313 1.316 1.314.39-.389a1.773 1.773 0 0 0 0-2.509l-.118-.117a1.77 1.77 0 0 0-1.257-.52 1.77 1.77 0 0 0-1.258.52zm-7.82-3.818v9.66l2.607-2.6v-7.06zm2.607 16.23l-2.607 2.6v15.102H5.385v2.527H35.91z"/></g><g><path d="M7.552 36.858c1.132.048 1.984-.586 2.736-1.145.235-.175.457-.34.675-.475.584-.362 1.436-.611 2.181.261.153.18.302.393.459.619.462.666 1.038 1.494 2.058 1.753.213.054.43.08.644.08.47 0 .927-.128 1.314-.376l-.752-1.164a1.118 1.118 0 0 1-.864.118c-.516-.131-.86-.626-1.26-1.2a9.162 9.162 0 0 0-.542-.728c-1.034-1.21-2.556-1.417-3.972-.538-.267.166-.523.356-.77.54-.622.462-1.21.898-1.848.872-.64-.027-1.241-.409-1.462-.928-.209-.49-.098-1.04.359-1.784l-1.185-.723c-.255.417-1.033 1.685-.453 3.048.43 1.01 1.508 1.72 2.682 1.77z"/></g><g><path d="M16.278 6.591c-.218.081-.437.2-.66.356-.22.156-.38.327-.474.513a1.52 1.52 0 0 0-.142.694c0 .277.072.514.216.71.255.349.672.587 1.25.716l.707.158c.217.049.398.11.543.184.145.074.217.185.217.332 0 .263-.168.445-.503.547-.138.042-.35.063-.637.063-.4 0-.763-.094-1.086-.284a1.863 1.863 0 0 1-.739-.789v1.42a5.65 5.65 0 0 0 1.35.6l.011 1.074c0 .021.01.032.032.032h.918c.028 0 .042-.014.042-.042v-.99c.598-.198 1.036-.473 1.315-.825.228-.287.342-.57.342-.848 0-.541-.254-.934-.76-1.179a3.05 3.05 0 0 0-.702-.236c-.25-.053-.483-.106-.701-.158-.218-.053-.4-.121-.544-.206-.144-.084-.216-.217-.216-.4 0-.182.072-.305.216-.368.144-.063.318-.095.523-.095.694 0 1.268.218 1.72.653v-1.21c-.17-.187-.58-.323-1.235-.411v-1.21c0-.021-.014-.032-.042-.032h-.918c-.028 0-.042.014-.042.042z"/></g></g></g></svg>